<svg version="1.1" id="Layer_1" xmlns="http://www.w3.org/2000/svg" xmlns:xlink="http://www.w3.org/1999/xlink" x="0px" y="0px"
	 width="100%" viewBox="0 0 430 152" enable-background="new 0 0 430 152" xml:space="preserve">
<path fill="#FFFFFF" opacity="1.000000" stroke="none" 
	d="
M1.000000,108.000000 
	C1.000000,98.645775 1.000000,89.291542 1.417673,79.462540 
	C2.193185,78.730408 2.790100,78.534531 2.874349,78.206841 
	C6.030741,65.930016 8.672780,53.497269 12.397281,41.397388 
	C15.605361,30.975224 20.188519,21.065645 28.809233,13.623421 
	C35.383949,7.947494 43.419167,10.194531 44.845730,18.754705 
	C45.523506,22.821733 45.085754,27.347498 44.045486,31.379622 
	C40.062733,46.816887 30.904785,58.912640 18.671909,68.863091 
	C17.672123,69.676338 16.394384,70.701340 16.166899,71.815941 
	C15.112924,76.980080 14.384265,82.210609 13.539097,87.417366 
	C13.945336,87.604988 14.351576,87.792610 14.757815,87.980240 
	C16.090826,86.537949 17.566637,85.201263 18.727419,83.631615 
	C21.221527,80.258987 23.414526,76.658348 25.987637,73.350868 
	C29.012161,69.463127 33.094849,66.511681 38.040657,68.235542 
	C42.374905,69.746262 43.945480,74.308800 43.886444,78.644127 
	C43.811142,84.174416 43.056236,89.712082 42.334564,95.212494 
	C41.525928,101.375778 40.427032,107.500977 39.454433,113.642746 
	C41.393948,113.711288 42.274986,113.430809 42.582500,112.847816 
	C48.099144,102.389297 54.047085,92.117203 58.849388,81.336014 
	C62.660820,72.779358 66.014999,64.432373 76.015167,61.445042 
	C83.055939,59.341763 88.421646,62.824398 87.836838,69.887535 
	C87.491356,74.060097 86.385139,78.688538 84.078484,82.055038 
	C80.830750,86.794998 76.466408,91.024025 69.954842,91.355888 
	C70.495247,93.088997 70.862923,94.487465 71.364899,95.835953 
	C72.740639,99.531761 75.443451,101.299408 78.823425,98.900726 
	C86.332962,93.571419 93.489799,87.890388 95.096329,77.767044 
	C95.868202,72.903152 97.641541,68.198845 98.950653,63.419334 
	C99.795959,60.333168 101.933212,57.248177 104.810143,58.368404 
	C106.851280,59.163193 108.368210,63.031990 108.828835,65.747559 
	C109.496750,69.685257 108.999992,73.820503 108.999992,77.871490 
	C110.711517,77.144669 111.385307,76.200821 111.970093,75.204720 
	C115.058235,69.944443 117.704163,64.362206 121.298256,59.476284 
	C126.379425,52.568775 134.564407,50.922035 139.203415,59.879402 
	C140.775314,62.914532 141.498245,66.545357 141.920670,69.988419 
	C142.905365,78.014488 139.292816,85.140808 136.926865,92.502846 
	C135.647598,96.483459 134.596985,100.537537 133.443222,104.558479 
	C133.899323,104.757423 134.355438,104.956367 134.811539,105.155319 
	C135.423492,104.706406 136.222549,104.382515 136.618805,103.789482 
	C141.178055,96.966217 145.708344,90.122818 150.150391,83.223000 
	C150.713898,82.347725 150.965225,81.119888 150.964127,80.055801 
	C150.951080,67.474571 157.305328,57.952553 171.791107,55.027187 
	C180.381439,53.292393 189.334137,60.670738 188.999863,69.403175 
	C188.720856,76.691505 184.793396,80.401070 177.752136,79.466438 
	C178.167374,75.607727 178.695923,71.747269 178.968964,67.868820 
	C179.252686,63.838421 176.692474,62.285393 173.296387,63.108158 
	C167.385437,64.540207 165.014175,69.777199 163.272064,74.768463 
	C162.033966,78.315765 162.466736,82.293114 166.321548,84.869316 
	C169.267197,86.837929 172.052734,89.046135 174.567352,90.896065 
	C181.781738,87.193985 188.715515,83.795837 195.466660,80.067017 
	C197.317444,79.044785 199.283920,77.309441 200.070786,75.429756 
	C206.251938,60.664097 216.902054,54.915951 229.610977,59.946217 
	C230.076706,57.745888 230.484238,55.550907 231.008942,53.384304 
	C234.916550,37.248798 240.878632,22.084818 252.066330,9.445464 
	C254.625244,6.554502 257.351013,3.811238 260.000000,1.000001 
	C263.030609,1.000000 266.061188,1.000000 269.259155,1.286991 
	C274.785858,6.807892 278.077393,12.781910 274.955902,20.368288 
	C271.861694,27.888462 268.891144,35.542881 264.896484,42.588516 
	C259.693542,51.765194 253.464539,60.311630 244.817993,66.791183 
	C242.914017,68.217972 240.336746,70.353226 240.225342,72.286461 
	C239.747406,80.580772 239.925949,88.927017 240.236847,97.240440 
	C240.296997,98.849129 241.940765,101.634514 242.994019,101.702316 
	C244.940598,101.827614 247.619385,100.892601 248.890610,99.436630 
	C254.881454,92.575226 260.911285,85.678322 266.149170,78.245789 
	C273.490082,67.829140 285.330780,66.269409 293.590668,73.191925 
	C294.741608,67.202690 298.943695,66.552628 303.940063,66.958679 
	C308.387726,67.320122 309.713226,69.008308 308.263367,73.317169 
	C306.374695,78.930115 304.194305,84.451126 302.480865,90.114983 
	C300.844330,95.524605 299.645569,101.066673 298.254364,106.550514 
	C298.923950,106.920647 299.593506,107.290779 300.263092,107.660919 
	C301.993958,106.123085 303.912048,104.746681 305.410614,103.008598 
	C307.519165,100.563057 309.391602,97.901123 311.231995,95.239746 
	C315.688477,88.795357 320.375519,82.644661 321.230438,74.235596 
	C321.734131,69.281174 324.227417,64.490746 326.077820,59.724373 
	C327.413910,56.282982 331.979095,56.146709 336.130096,57.728409 
	C339.552490,59.032478 339.482300,61.787704 338.086700,64.912224 
	C336.590088,68.263039 335.363037,71.763313 334.346313,75.292839 
	C332.695740,81.023033 329.847229,86.620827 331.645782,94.026230 
	C333.500061,91.909378 334.916473,90.602272 335.962128,89.046051 
	C340.993103,81.558464 345.999481,74.051674 350.846466,66.444588 
	C352.381561,64.035324 353.615997,62.435291 357.084320,62.822369 
	C361.208954,63.282692 363.313995,65.963066 363.772614,68.952621 
	C364.826172,75.820274 364.882996,82.840843 365.369934,90.185211 
	C369.491394,87.293823 374.060547,84.150146 378.525604,80.864983 
	C378.996948,80.518204 378.916138,79.345299 378.990723,78.546265 
	C380.110352,66.545158 387.104431,57.298042 400.284210,55.137924 
	C405.708954,54.248833 411.350922,55.373405 414.671997,60.420517 
	C418.131287,65.677765 418.482361,71.664017 414.811768,76.906677 
	C413.562439,78.691086 410.182495,78.983765 407.776123,79.958076 
	C407.205109,77.891296 406.420074,75.852287 406.146881,73.746872 
	C405.993774,72.566849 406.627502,71.257698 407.012512,70.040199 
	C407.965118,67.028137 407.219086,63.952793 404.348358,63.390987 
	C402.083740,62.947792 398.625397,64.104713 397.031403,65.803131 
	C394.717407,68.268631 393.646606,71.884460 391.970490,74.968880 
	C389.455780,79.596512 391.749268,82.919518 395.158997,85.556198 
	C402.308472,91.084785 403.303894,90.592728 408.827576,87.880196 
	C415.953522,84.380806 423.585785,81.912415 431.000000,79.000000 
	C431.000000,80.388893 431.000000,81.777779 430.628906,83.584839 
	C423.512695,88.035080 416.767548,92.067154 409.978912,96.125229 
	C415.961426,103.076035 418.407410,113.976791 414.530640,119.795982 
	C409.901520,126.744568 404.232941,132.626007 395.171631,134.115204 
	C388.124023,135.273438 382.497040,133.666168 378.827057,128.298553 
	C375.874542,123.980263 375.997498,116.804291 379.799988,111.842979 
	C383.445923,107.085922 387.701813,102.796349 391.359741,98.673180 
	C388.614532,96.328674 385.766510,94.156929 383.239655,91.660133 
	C381.009857,89.456856 379.234833,89.480888 376.897125,91.504890 
	C373.458923,94.481697 369.711914,97.099434 366.222290,100.020439 
	C364.961853,101.075493 363.542816,102.409805 363.106384,103.885811 
	C362.106018,107.268974 361.909393,110.886101 360.955078,114.287209 
	C357.351135,127.131508 352.865479,139.541504 342.624878,148.902435 
	C341.286438,150.125916 340.202087,151.627335 339.000000,153.000000 
	C333.977905,153.000000 328.955811,153.000000 323.758087,152.692078 
	C318.510345,146.319412 318.404999,139.829178 320.832092,132.481995 
	C325.417938,118.599983 336.002838,110.180206 347.028015,102.003624 
	C348.577637,100.854385 351.384186,99.991333 351.588959,98.680298 
	C352.493317,92.890411 352.658783,86.985123 353.146118,80.385651 
	C347.128357,87.488419 342.189331,93.908028 336.628418,99.734062 
	C329.472107,107.231552 323.401520,106.475548 317.933441,97.732254 
	C317.249786,98.488152 316.576172,99.127998 316.024597,99.859856 
	C312.419067,104.644119 309.142731,109.720192 305.156036,114.159576 
	C301.991699,117.683212 297.681335,119.290848 292.802032,117.286644 
	C287.934052,115.287079 286.872620,111.171043 287.034180,106.518982 
	C287.116821,104.139343 287.555725,101.772072 287.833588,99.399216 
	C285.933044,99.550056 284.744141,100.435776 283.839233,101.551743 
	C278.249603,108.444832 271.707458,111.207596 267.446503,105.783798 
	C265.475220,103.274567 264.434265,100.034454 262.988464,97.159409 
	C258.736420,101.203629 254.465149,105.399445 250.048355,109.436028 
	C243.330948,115.575195 235.456558,115.697884 231.899216,109.240425 
	C229.812225,105.451988 229.029419,100.873085 228.069138,96.558678 
	C227.295975,93.084969 227.136810,89.474586 226.673096,85.660645 
	C222.642227,90.831184 219.239304,95.507553 215.504333,99.901680 
	C211.592072,104.504387 204.513351,104.905991 201.061447,97.906624 
	C199.394913,94.527405 198.491226,90.771965 197.111649,86.812401 
	C192.138550,89.708839 187.058273,92.667709 181.970673,95.630829 
	C187.551559,104.389236 189.220200,110.520981 187.461121,116.047348 
	C183.798904,127.552696 174.045898,133.537598 163.796677,134.751450 
	C160.370789,135.157196 155.996384,133.492767 153.114243,131.350403 
	C146.525681,126.452965 146.809387,117.491165 152.030701,110.622093 
	C155.238541,106.401917 159.119614,102.693466 162.941971,98.487183 
	C160.098572,96.428505 157.011856,94.193665 153.485275,91.640358 
	C152.591827,93.299820 151.756546,94.788574 150.978577,96.306694 
	C146.851227,104.360718 141.673721,111.620567 134.873520,117.655472 
	C129.904602,122.065170 123.814056,121.401672 123.228531,116.102386 
	C122.673363,111.077858 122.765465,105.766220 123.782486,100.830055 
	C125.689842,91.572639 128.672623,82.540436 130.740387,73.309784 
	C131.234283,71.104980 129.887848,68.487915 129.387848,66.060455 
	C127.509018,67.605164 125.069572,68.807068 123.870781,70.767593 
	C121.540573,74.578468 119.953239,78.837944 117.974625,82.870598 
	C113.673363,91.637100 109.561539,100.509918 104.886383,109.074020 
	C102.510979,113.425377 98.093887,112.959030 96.185432,108.353172 
	C94.823654,105.066666 94.234528,101.460014 93.487709,98.690117 
	C87.641777,101.803070 82.163147,105.814545 76.030800,107.700996 
	C68.830765,109.915886 62.798695,106.451424 59.452621,100.045876 
	C54.102589,107.809586 49.078983,115.258255 43.873955,122.577927 
	C41.667820,125.680351 37.824043,127.420021 34.853180,125.605034 
	C32.444214,124.133331 30.415062,120.230217 30.247849,117.290031 
	C29.936613,111.817528 31.110878,106.261642 31.653656,100.739174 
	C32.293831,94.225708 32.920074,87.710861 33.552357,81.196617 
	C32.910934,81.010498 32.269512,80.824387 31.628090,80.638275 
	C29.934315,82.736633 28.035826,84.703644 26.588167,86.959915 
	C23.286119,92.106377 20.300106,97.455231 17.012236,102.611252 
	C11.820729,110.752556 9.567231,111.449341 1.000000,108.000000 
M251.957977,33.466003 
	C248.761597,41.447090 245.565201,49.428181 242.368805,57.409271 
	C254.323380,50.278149 270.193176,24.313684 265.988220,11.889787 
	C263.727814,14.301747 261.483002,16.074024 260.050720,18.356243 
	C257.144592,22.986904 254.678040,27.893442 251.957977,33.466003 
M342.574310,117.942886 
	C341.628967,118.881622 340.551453,119.721176 339.760132,120.775513 
	C335.330780,126.677025 329.903412,132.130844 330.057343,140.268631 
	C330.085968,141.781662 330.859314,143.280609 331.288940,144.786072 
	C332.832642,144.060822 334.604065,143.612610 335.881073,142.562912 
	C341.751373,137.737534 344.397461,130.866974 346.966644,124.051735 
	C348.393860,120.265778 349.288544,116.279053 350.423248,112.382820 
	C349.890076,112.064514 349.356934,111.746208 348.823761,111.427895 
	C346.873230,113.393555 344.922699,115.359207 342.574310,117.942886 
M401.092621,104.022110 
	C395.591675,104.171494 386.817474,113.302299 387.000580,118.686890 
	C387.098053,121.554497 391.271332,125.615944 393.940765,124.897324 
	C399.256226,123.466385 403.509949,120.502640 405.508423,115.018440 
	C407.179993,110.431389 405.050537,107.187790 401.092621,104.022110 
M160.004776,113.931717 
	C159.948502,116.715942 159.182693,119.770432 160.101685,122.183189 
	C160.654282,123.633995 163.859222,124.884438 165.825439,124.819038 
	C169.971390,124.681137 177.439804,117.472046 177.854324,113.259445 
	C178.362167,108.098358 174.602448,105.390953 170.543228,102.580650 
	C167.019043,106.222595 163.648209,109.706070 160.004776,113.931717 
M288.992279,84.513550 
	C291.303741,82.183151 291.076996,79.487183 288.443054,78.236145 
	C286.499512,77.313049 283.023376,77.152115 281.471222,78.312195 
	C275.857819,82.507668 273.418915,88.714073 273.086945,95.628479 
	C273.019348,97.036125 274.065369,98.497246 274.598053,99.933708 
	C275.849792,99.327568 277.478424,99.034828 278.288055,98.061096 
	C281.809570,93.825867 285.092529,89.392334 288.992279,84.513550 
M223.523315,75.982986 
	C223.889862,75.269005 224.164032,74.485779 224.638565,73.852737 
	C226.980377,70.728683 225.755066,67.981888 222.890900,66.720299 
	C221.651978,66.174583 218.335480,67.748711 217.566986,69.205940 
	C214.991058,74.090546 212.862930,79.267036 211.154144,84.523811 
	C210.532959,86.434807 211.572556,88.885674 211.854385,91.090210 
	C212.562714,91.260628 213.271042,91.431046 213.979370,91.601456 
	C216.999115,86.593964 220.018860,81.586479 223.523315,75.982986 
M21.879890,54.647064 
	C29.189243,45.730061 35.252537,36.249283 36.338680,23.175791 
	C34.319237,24.219561 32.665436,24.505636 32.295017,25.352839 
	C28.102797,34.941055 24.104689,44.614204 20.108925,54.287052 
	C20.081272,54.353992 20.811533,54.734024 21.879890,54.647064 
M76.538239,79.975731 
	C78.296326,76.573448 80.054420,73.171158 82.273254,68.877228 
	C76.283791,69.945000 72.264816,76.749878 72.498344,82.886879 
	C72.818893,82.871086 73.242897,82.981339 73.442146,82.817787 
	C74.328056,82.090645 75.149597,81.285080 76.538239,79.975731 
z"/>
<path fill="#000000" opacity="1.000000" stroke="none" 
	d="
M259.531342,1.000001 
	C257.351013,3.811238 254.625244,6.554502 252.066330,9.445464 
	C240.878632,22.084818 234.916550,37.248798 231.008942,53.384304 
	C230.484238,55.550907 230.076706,57.745888 229.610977,59.946217 
	C216.902054,54.915951 206.251938,60.664097 200.070786,75.429756 
	C199.283920,77.309441 197.317444,79.044785 195.466660,80.067017 
	C188.715515,83.795837 181.781738,87.193985 174.567352,90.896065 
	C172.052734,89.046135 169.267197,86.837929 166.321548,84.869316 
	C162.466736,82.293114 162.033966,78.315765 163.272064,74.768463 
	C165.014175,69.777199 167.385437,64.540207 173.296387,63.108158 
	C176.692474,62.285393 179.252686,63.838421 178.968964,67.868820 
	C178.695923,71.747269 178.167374,75.607727 177.752136,79.466438 
	C184.793396,80.401070 188.720856,76.691505 188.999863,69.403175 
	C189.334137,60.670738 180.381439,53.292393 171.791107,55.027187 
	C157.305328,57.952553 150.951080,67.474571 150.964127,80.055801 
	C150.965225,81.119888 150.713898,82.347725 150.150391,83.223000 
	C145.708344,90.122818 141.178055,96.966217 136.618805,103.789482 
	C136.222549,104.382515 135.423492,104.706406 134.811539,105.155319 
	C134.355438,104.956367 133.899323,104.757423 133.443222,104.558479 
	C134.596985,100.537537 135.647598,96.483459 136.926865,92.502846 
	C139.292816,85.140808 142.905365,78.014488 141.920670,69.988419 
	C141.498245,66.545357 140.775314,62.914532 139.203415,59.879402 
	C134.564407,50.922035 126.379425,52.568775 121.298256,59.476284 
	C117.704163,64.362206 115.058235,69.944443 111.970093,75.204720 
	C111.385307,76.200821 110.711517,77.144669 108.999992,77.871490 
	C108.999992,73.820503 109.496750,69.685257 108.828835,65.747559 
	C108.368210,63.031990 106.851280,59.163193 104.810143,58.368404 
	C101.933212,57.248177 99.795959,60.333168 98.950653,63.419334 
	C97.641541,68.198845 95.868202,72.903152 95.096329,77.767044 
	C93.489799,87.890388 86.332962,93.571419 78.823425,98.900726 
	C75.443451,101.299408 72.740639,99.531761 71.364899,95.835953 
	C70.862923,94.487465 70.495247,93.088997 69.954842,91.355888 
	C76.466408,91.024025 80.830750,86.794998 84.078484,82.055038 
	C86.385139,78.688538 87.491356,74.060097 87.836838,69.887535 
	C88.421646,62.824398 83.055939,59.341763 76.015167,61.445042 
	C66.014999,64.432373 62.660820,72.779358 58.849388,81.336014 
	C54.047085,92.117203 48.099144,102.389297 42.582500,112.847816 
	C42.274986,113.430809 41.393948,113.711288 39.454433,113.642746 
	C40.427032,107.500977 41.525928,101.375778 42.334564,95.212494 
	C43.056236,89.712082 43.811142,84.174416 43.886444,78.644127 
	C43.945480,74.308800 42.374905,69.746262 38.040657,68.235542 
	C33.094849,66.511681 29.012161,69.463127 25.987637,73.350868 
	C23.414526,76.658348 21.221527,80.258987 18.727419,83.631615 
	C17.566637,85.201263 16.090826,86.537949 14.757815,87.980240 
	C14.351576,87.792610 13.945336,87.604988 13.539097,87.417366 
	C14.384265,82.210609 15.112924,76.980080 16.166899,71.815941 
	C16.394384,70.701340 17.672123,69.676338 18.671909,68.863091 
	C30.904785,58.912640 40.062733,46.816887 44.045486,31.379622 
	C45.085754,27.347498 45.523506,22.821733 44.845730,18.754705 
	C43.419167,10.194531 35.383949,7.947494 28.809233,13.623421 
	C20.188519,21.065645 15.605361,30.975224 12.397281,41.397388 
	C8.672780,53.497269 6.030741,65.930016 2.874349,78.206841 
	C2.790100,78.534531 2.193185,78.730408 1.417673,78.993881 
	C1.000000,53.033787 1.000000,27.067574 1.000000,1.000000 
	C87.020866,1.000000 173.041779,1.000000 259.531342,1.000001 
z"/>
<path fill="#000000" opacity="1.000000" stroke="none" 
	d="
M1.000000,108.468658 
	C9.567231,111.449341 11.820729,110.752556 17.012236,102.611252 
	C20.300106,97.455231 23.286119,92.106377 26.588167,86.959915 
	C28.035826,84.703644 29.934315,82.736633 31.628090,80.638275 
	C32.269512,80.824387 32.910934,81.010498 33.552357,81.196617 
	C32.920074,87.710861 32.293831,94.225708 31.653656,100.739174 
	C31.110878,106.261642 29.936613,111.817528 30.247849,117.290031 
	C30.415062,120.230217 32.444214,124.133331 34.853180,125.605034 
	C37.824043,127.420021 41.667820,125.680351 43.873955,122.577927 
	C49.078983,115.258255 54.102589,107.809586 59.452621,100.045876 
	C62.798695,106.451424 68.830765,109.915886 76.030800,107.700996 
	C82.163147,105.814545 87.641777,101.803070 93.487709,98.690117 
	C94.234528,101.460014 94.823654,105.066666 96.185432,108.353172 
	C98.093887,112.959030 102.510979,113.425377 104.886383,109.074020 
	C109.561539,100.509918 113.673363,91.637100 117.974625,82.870598 
	C119.953239,78.837944 121.540573,74.578468 123.870781,70.767593 
	C125.069572,68.807068 127.509018,67.605164 129.387848,66.060455 
	C129.887848,68.487915 131.234283,71.104980 130.740387,73.309784 
	C128.672623,82.540436 125.689842,91.572639 123.782486,100.830055 
	C122.765465,105.766220 122.673363,111.077858 123.228531,116.102386 
	C123.814056,121.401672 129.904602,122.065170 134.873520,117.655472 
	C141.673721,111.620567 146.851227,104.360718 150.978577,96.306694 
	C151.756546,94.788574 152.591827,93.299820 153.485275,91.640358 
	C157.011856,94.193665 160.098572,96.428505 162.941971,98.487183 
	C159.119614,102.693466 155.238541,106.401917 152.030701,110.622093 
	C146.809387,117.491165 146.525681,126.452965 153.114243,131.350403 
	C155.996384,133.492767 160.370789,135.157196 163.796677,134.751450 
	C174.045898,133.537598 183.798904,127.552696 187.461121,116.047348 
	C189.220200,110.520981 187.551559,104.389236 181.970673,95.630829 
	C187.058273,92.667709 192.138550,89.708839 197.111649,86.812401 
	C198.491226,90.771965 199.394913,94.527405 201.061447,97.906624 
	C204.513351,104.905991 211.592072,104.504387 215.504333,99.901680 
	C219.239304,95.507553 222.642227,90.831184 226.673096,85.660645 
	C227.136810,89.474586 227.295975,93.084969 228.069138,96.558678 
	C229.029419,100.873085 229.812225,105.451988 231.899216,109.240425 
	C235.456558,115.697884 243.330948,115.575195 250.048355,109.436028 
	C254.465149,105.399445 258.736420,101.203629 262.988464,97.159409 
	C264.434265,100.034454 265.475220,103.274567 267.446503,105.783798 
	C271.707458,111.207596 278.249603,108.444832 283.839233,101.551743 
	C284.744141,100.435776 285.933044,99.550056 287.833588,99.399216 
	C287.555725,101.772072 287.116821,104.139343 287.034180,106.518982 
	C286.872620,111.171043 287.934052,115.287079 292.802032,117.286644 
	C297.681335,119.290848 301.991699,117.683212 305.156036,114.159576 
	C309.142731,109.720192 312.419067,104.644119 316.024597,99.859856 
	C316.576172,99.127998 317.249786,98.488152 317.933441,97.732254 
	C323.401520,106.475548 329.472107,107.231552 336.628418,99.734062 
	C342.189331,93.908028 347.128357,87.488419 353.146118,80.385651 
	C352.658783,86.985123 352.493317,92.890411 351.588959,98.680298 
	C351.384186,99.991333 348.577637,100.854385 347.028015,102.003624 
	C336.002838,110.180206 325.417938,118.599983 320.832092,132.481995 
	C318.404999,139.829178 318.510345,146.319412 323.291229,152.692078 
	C215.666656,153.000000 108.333305,153.000000 1.000000,153.000000 
	C1.000000,138.235611 1.000000,123.586464 1.000000,108.468658 
z"/>
<path fill="#000000" opacity="1.000000" stroke="none" 
	d="
M431.000000,78.531342 
	C423.585785,81.912415 415.953522,84.380806 408.827576,87.880196 
	C403.303894,90.592728 402.308472,91.084785 395.158997,85.556198 
	C391.749268,82.919518 389.455780,79.596512 391.970490,74.968880 
	C393.646606,71.884460 394.717407,68.268631 397.031403,65.803131 
	C398.625397,64.104713 402.083740,62.947792 404.348358,63.390987 
	C407.219086,63.952793 407.965118,67.028137 407.012512,70.040199 
	C406.627502,71.257698 405.993774,72.566849 406.146881,73.746872 
	C406.420074,75.852287 407.205109,77.891296 407.776123,79.958076 
	C410.182495,78.983765 413.562439,78.691086 414.811768,76.906677 
	C418.482361,71.664017 418.131287,65.677765 414.671997,60.420517 
	C411.350922,55.373405 405.708954,54.248833 400.284210,55.137924 
	C387.104431,57.298042 380.110352,66.545158 378.990723,78.546265 
	C378.916138,79.345299 378.996948,80.518204 378.525604,80.864983 
	C374.060547,84.150146 369.491394,87.293823 365.369934,90.185211 
	C364.882996,82.840843 364.826172,75.820274 363.772614,68.952621 
	C363.313995,65.963066 361.208954,63.282692 357.084320,62.822369 
	C353.615997,62.435291 352.381561,64.035324 350.846466,66.444588 
	C345.999481,74.051674 340.993103,81.558464 335.962128,89.046051 
	C334.916473,90.602272 333.500061,91.909378 331.645782,94.026230 
	C329.847229,86.620827 332.695740,81.023033 334.346313,75.292839 
	C335.363037,71.763313 336.590088,68.263039 338.086700,64.912224 
	C339.482300,61.787704 339.552490,59.032478 336.130096,57.728409 
	C331.979095,56.146709 327.413910,56.282982 326.077820,59.724373 
	C324.227417,64.490746 321.734131,69.281174 321.230438,74.235596 
	C320.375519,82.644661 315.688477,88.795357 311.231995,95.239746 
	C309.391602,97.901123 307.519165,100.563057 305.410614,103.008598 
	C303.912048,104.746681 301.993958,106.123085 300.263092,107.660919 
	C299.593506,107.290779 298.923950,106.920647 298.254364,106.550514 
	C299.645569,101.066673 300.844330,95.524605 302.480865,90.114983 
	C304.194305,84.451126 306.374695,78.930115 308.263367,73.317169 
	C309.713226,69.008308 308.387726,67.320122 303.940063,66.958679 
	C298.943695,66.552628 294.741608,67.202690 293.590668,73.191925 
	C285.330780,66.269409 273.490082,67.829140 266.149170,78.245789 
	C260.911285,85.678322 254.881454,92.575226 248.890610,99.436630 
	C247.619385,100.892601 244.940598,101.827614 242.994019,101.702316 
	C241.940765,101.634514 240.296997,98.849129 240.236847,97.240440 
	C239.925949,88.927017 239.747406,80.580772 240.225342,72.286461 
	C240.336746,70.353226 242.914017,68.217972 244.817993,66.791183 
	C253.464539,60.311630 259.693542,51.765194 264.896484,42.588516 
	C268.891144,35.542881 271.861694,27.888462 274.955902,20.368288 
	C278.077393,12.781910 274.785858,6.807892 269.713257,1.286991 
	C323.568268,1.000000 377.136536,1.000000 431.000000,1.000000 
	C431.000000,26.686808 431.000000,52.374744 431.000000,78.531342 
z"/>
<path fill="#000000" opacity="1.000000" stroke="none" 
	d="
M339.468658,153.000000 
	C340.202087,151.627335 341.286438,150.125916 342.624878,148.902435 
	C352.865479,139.541504 357.351135,127.131508 360.955078,114.287209 
	C361.909393,110.886101 362.106018,107.268974 363.106384,103.885811 
	C363.542816,102.409805 364.961853,101.075493 366.222290,100.020439 
	C369.711914,97.099434 373.458923,94.481697 376.897125,91.504890 
	C379.234833,89.480888 381.009857,89.456856 383.239655,91.660133 
	C385.766510,94.156929 388.614532,96.328674 391.359741,98.673180 
	C387.701813,102.796349 383.445923,107.085922 379.799988,111.842979 
	C375.997498,116.804291 375.874542,123.980263 378.827057,128.298553 
	C382.497040,133.666168 388.124023,135.273438 395.171631,134.115204 
	C404.232941,132.626007 409.901520,126.744568 414.530640,119.795982 
	C418.407410,113.976791 415.961426,103.076035 409.978912,96.125229 
	C416.767548,92.067154 423.512695,88.035080 430.628906,84.001503 
	C431.000000,106.937332 431.000000,129.874664 431.000000,153.000000 
	C400.646027,153.000000 370.291687,153.000000 339.468658,153.000000 
z"/>
<path fill="#000000" opacity="1.000000" stroke="none" 
	d="
M251.994141,33.076134 
	C254.678040,27.893442 257.144592,22.986904 260.050720,18.356243 
	C261.483002,16.074024 263.727814,14.301747 265.988220,11.889787 
	C270.193176,24.313684 254.323380,50.278149 242.368805,57.409271 
	C245.565201,49.428181 248.761597,41.447090 251.994141,33.076134 
z"/>
<path fill="#000000" opacity="1.000000" stroke="none" 
	d="
M342.773254,117.633881 
	C344.922699,115.359207 346.873230,113.393555 348.823761,111.427895 
	C349.356934,111.746208 349.890076,112.064514 350.423248,112.382820 
	C349.288544,116.279053 348.393860,120.265778 346.966644,124.051735 
	C344.397461,130.866974 341.751373,137.737534 335.881073,142.562912 
	C334.604065,143.612610 332.832642,144.060822 331.288940,144.786072 
	C330.859314,143.280609 330.085968,141.781662 330.057343,140.268631 
	C329.903412,132.130844 335.330780,126.677025 339.760132,120.775513 
	C340.551453,119.721176 341.628967,118.881622 342.773254,117.633881 
z"/>
<path fill="#000000" opacity="1.000000" stroke="none" 
	d="
M401.462769,104.160004 
	C405.050537,107.187790 407.179993,110.431389 405.508423,115.018440 
	C403.509949,120.502640 399.256226,123.466385 393.940765,124.897324 
	C391.271332,125.615944 387.098053,121.554497 387.000580,118.686890 
	C386.817474,113.302299 395.591675,104.171494 401.462769,104.160004 
z"/>
<path fill="#000000" opacity="1.000000" stroke="none" 
	d="
M160.141068,113.560638 
	C163.648209,109.706070 167.019043,106.222595 170.543228,102.580650 
	C174.602448,105.390953 178.362167,108.098358 177.854324,113.259445 
	C177.439804,117.472046 169.971390,124.681137 165.825439,124.819038 
	C163.859222,124.884438 160.654282,123.633995 160.101685,122.183189 
	C159.182693,119.770432 159.948502,116.715942 160.141068,113.560638 
z"/>
<path fill="#000000" opacity="1.000000" stroke="none" 
	d="
M288.727234,84.772202 
	C285.092529,89.392334 281.809570,93.825867 278.288055,98.061096 
	C277.478424,99.034828 275.849792,99.327568 274.598053,99.933708 
	C274.065369,98.497246 273.019348,97.036125 273.086945,95.628479 
	C273.418915,88.714073 275.857819,82.507668 281.471222,78.312195 
	C283.023376,77.152115 286.499512,77.313049 288.443054,78.236145 
	C291.076996,79.487183 291.303741,82.183151 288.727234,84.772202 
z"/>
<path fill="#000000" opacity="1.000000" stroke="none" 
	d="
M223.280960,76.280991 
	C220.018860,81.586479 216.999115,86.593964 213.979370,91.601456 
	C213.271042,91.431046 212.562714,91.260628 211.854385,91.090210 
	C211.572556,88.885674 210.532959,86.434807 211.154144,84.523811 
	C212.862930,79.267036 214.991058,74.090546 217.566986,69.205940 
	C218.335480,67.748711 221.651978,66.174583 222.890900,66.720299 
	C225.755066,67.981888 226.980377,70.728683 224.638565,73.852737 
	C224.164032,74.485779 223.889862,75.269005 223.280960,76.280991 
z"/>
<path fill="#000000" opacity="1.000000" stroke="none" 
	d="
M21.533892,54.807461 
	C20.811533,54.734024 20.081272,54.353992 20.108925,54.287052 
	C24.104689,44.614204 28.102797,34.941055 32.295017,25.352839 
	C32.665436,24.505636 34.319237,24.219561 36.338680,23.175791 
	C35.252537,36.249283 29.189243,45.730061 21.533892,54.807461 
z"/>
<path fill="#000000" opacity="1.000000" stroke="none" 
	d="
M76.266327,80.241798 
	C75.149597,81.285080 74.328056,82.090645 73.442146,82.817787 
	C73.242897,82.981339 72.818893,82.871086 72.498093,82.881821 
	C72.264816,76.749878 76.283791,69.945000 82.273254,68.877228 
	C80.054420,73.171158 78.296326,76.573448 76.266327,80.241798 
z"/>
</svg>