<svg xmlns="http://www.w3.org/2000/svg" viewBox="0 0 430 152"><!-- Whensdays cursive wordmark ("hensdays" — sits after the W logo). Trace cleaned: background removed, single path. --><path fill="#000000" opacity="1.0" stroke="none" d=" M1.0,108.0 C1.0,98.6 1.0,89.3 1.4,79.5 C2.2,78.7 2.8,78.5 2.9,78.2 C6.0,65.9 8.7,53.5 12.4,41.4 C15.6,31.0 20.2,21.1 28.8,13.6 C35.4,7.9 43.4,10.2 44.8,18.8 C45.5,22.8 45.1,27.3 44.0,31.4 C40.1,46.8 30.9,58.9 18.7,68.9 C17.7,69.7 16.4,70.7 16.2,71.8 C15.1,77.0 14.4,82.2 13.5,87.4 C13.9,87.6 14.4,87.8 14.8,88.0 C16.1,86.5 17.6,85.2 18.7,83.6 C21.2,80.3 23.4,76.7 26.0,73.4 C29.0,69.5 33.1,66.5 38.0,68.2 C42.4,69.7 43.9,74.3 43.9,78.6 C43.8,84.2 43.1,89.7 42.3,95.2 C41.5,101.4 40.4,107.5 39.5,113.6 C41.4,113.7 42.3,113.4 42.6,112.8 C48.1,102.4 54.0,92.1 58.8,81.3 C62.7,72.8 66.0,64.4 76.0,61.4 C83.1,59.3 88.4,62.8 87.8,69.9 C87.5,74.1 86.4,78.7 84.1,82.1 C80.8,86.8 76.5,91.0 70.0,91.4 C70.5,93.1 70.9,94.5 71.4,95.8 C72.7,99.5 75.4,101.3 78.8,98.9 C86.3,93.6 93.5,87.9 95.1,77.8 C95.9,72.9 97.6,68.2 99.0,63.4 C99.8,60.3 101.9,57.2 104.8,58.4 C106.9,59.2 108.4,63.0 108.8,65.7 C109.5,69.7 109.0,73.8 109.0,77.9 C110.7,77.1 111.4,76.2 112.0,75.2 C115.1,69.9 117.7,64.4 121.3,59.5 C126.4,52.6 134.6,50.9 139.2,59.9 C140.8,62.9 141.5,66.5 141.9,70.0 C142.9,78.0 139.3,85.1 136.9,92.5 C135.6,96.5 134.6,100.5 133.4,104.6 C133.9,104.8 134.4,105.0 134.8,105.2 C135.4,104.7 136.2,104.4 136.6,103.8 C141.2,97.0 145.7,90.1 150.2,83.2 C150.7,82.3 151.0,81.1 151.0,80.1 C151.0,67.5 157.3,58.0 171.8,55.0 C180.4,53.3 189.3,60.7 189.0,69.4 C188.7,76.7 184.8,80.4 177.8,79.5 C178.2,75.6 178.7,71.7 179.0,67.9 C179.3,63.8 176.7,62.3 173.3,63.1 C167.4,64.5 165.0,69.8 163.3,74.8 C162.0,78.3 162.5,82.3 166.3,84.9 C169.3,86.8 172.1,89.0 174.6,90.9 C181.8,87.2 188.7,83.8 195.5,80.1 C197.3,79.0 199.3,77.3 200.1,75.4 C206.3,60.7 216.9,54.9 229.6,59.9 C230.1,57.7 230.5,55.6 231.0,53.4 C234.9,37.2 240.9,22.1 252.1,9.4 C254.6,6.6 257.4,3.8 260.0,1.0 C263.0,1.0 266.1,1.0 269.3,1.3 C274.8,6.8 278.1,12.8 275.0,20.4 C271.9,27.9 268.9,35.5 264.9,42.6 C259.7,51.8 253.5,60.3 244.8,66.8 C242.9,68.2 240.3,70.4 240.2,72.3 C239.7,80.6 239.9,88.9 240.2,97.2 C240.3,98.8 241.9,101.6 243.0,101.7 C244.9,101.8 247.6,100.9 248.9,99.4 C254.9,92.6 260.9,85.7 266.1,78.2 C273.5,67.8 285.3,66.3 293.6,73.2 C294.7,67.2 298.9,66.6 303.9,67.0 C308.4,67.3 309.7,69.0 308.3,73.3 C306.4,78.9 304.2,84.5 302.5,90.1 C300.8,95.5 299.6,101.1 298.3,106.6 C298.9,106.9 299.6,107.3 300.3,107.7 C302.0,106.1 303.9,104.7 305.4,103.0 C307.5,100.6 309.4,97.9 311.2,95.2 C315.7,88.8 320.4,82.6 321.2,74.2 C321.7,69.3 324.2,64.5 326.1,59.7 C327.4,56.3 332.0,56.1 336.1,57.7 C339.6,59.0 339.5,61.8 338.1,64.9 C336.6,68.3 335.4,71.8 334.3,75.3 C332.7,81.0 329.8,86.6 331.6,94.0 C333.5,91.9 334.9,90.6 336.0,89.0 C341.0,81.6 346.0,74.1 350.8,66.4 C352.4,64.0 353.6,62.4 357.1,62.8 C361.2,63.3 363.3,66.0 363.8,69.0 C364.8,75.8 364.9,82.8 365.4,90.2 C369.5,87.3 374.1,84.2 378.5,80.9 C379.0,80.5 378.9,79.3 379.0,78.5 C380.1,66.5 387.1,57.3 400.3,55.1 C405.7,54.2 411.4,55.4 414.7,60.4 C418.1,65.7 418.5,71.7 414.8,76.9 C413.6,78.7 410.2,79.0 407.8,80.0 C407.2,77.9 406.4,75.9 406.1,73.7 C406.0,72.6 406.6,71.3 407.0,70.0 C408.0,67.0 407.2,64.0 404.3,63.4 C402.1,62.9 398.6,64.1 397.0,65.8 C394.7,68.3 393.6,71.9 392.0,75.0 C389.5,79.6 391.7,82.9 395.2,85.6 C402.3,91.1 403.3,90.6 408.8,87.9 C416.0,84.4 423.6,81.9 431.0,79.0 C431.0,80.4 431.0,81.8 430.6,83.6 C423.5,88.0 416.8,92.1 410.0,96.1 C416.0,103.1 418.4,114.0 414.5,119.8 C409.9,126.7 404.2,132.6 395.2,134.1 C388.1,135.3 382.5,133.7 378.8,128.3 C375.9,124.0 376.0,116.8 379.8,111.8 C383.4,107.1 387.7,102.8 391.4,98.7 C388.6,96.3 385.8,94.2 383.2,91.7 C381.0,89.5 379.2,89.5 376.9,91.5 C373.5,94.5 369.7,97.1 366.2,100.0 C365.0,101.1 363.5,102.4 363.1,103.9 C362.1,107.3 361.9,110.9 361.0,114.3 C357.4,127.1 352.9,139.5 342.6,148.9 C341.3,150.1 340.2,151.6 339.0,153.0 C334.0,153.0 329.0,153.0 323.8,152.7 C318.5,146.3 318.4,139.8 320.8,132.5 C325.4,118.6 336.0,110.2 347.0,102.0 C348.6,100.9 351.4,100.0 351.6,98.7 C352.5,92.9 352.7,87.0 353.1,80.4 C347.1,87.5 342.2,93.9 336.6,99.7 C329.5,107.2 323.4,106.5 317.9,97.7 C317.2,98.5 316.6,99.1 316.0,99.9 C312.4,104.6 309.1,109.7 305.2,114.2 C302.0,117.7 297.7,119.3 292.8,117.3 C287.9,115.3 286.9,111.2 287.0,106.5 C287.1,104.1 287.6,101.8 287.8,99.4 C285.9,99.6 284.7,100.4 283.8,101.6 C278.2,108.4 271.7,111.2 267.4,105.8 C265.5,103.3 264.4,100.0 263.0,97.2 C258.7,101.2 254.5,105.4 250.0,109.4 C243.3,115.6 235.5,115.7 231.9,109.2 C229.8,105.5 229.0,100.9 228.1,96.6 C227.3,93.1 227.1,89.5 226.7,85.7 C222.6,90.8 219.2,95.5 215.5,99.9 C211.6,104.5 204.5,104.9 201.1,97.9 C199.4,94.5 198.5,90.8 197.1,86.8 C192.1,89.7 187.1,92.7 182.0,95.6 C187.6,104.4 189.2,110.5 187.5,116.0 C183.8,127.6 174.0,133.5 163.8,134.8 C160.4,135.2 156.0,133.5 153.1,131.4 C146.5,126.5 146.8,117.5 152.0,110.6 C155.2,106.4 159.1,102.7 162.9,98.5 C160.1,96.4 157.0,94.2 153.5,91.6 C152.6,93.3 151.8,94.8 151.0,96.3 C146.9,104.4 141.7,111.6 134.9,117.7 C129.9,122.1 123.8,121.4 123.2,116.1 C122.7,111.1 122.8,105.8 123.8,100.8 C125.7,91.6 128.7,82.5 130.7,73.3 C131.2,71.1 129.9,68.5 129.4,66.1 C127.5,67.6 125.1,68.8 123.9,70.8 C121.5,74.6 120.0,78.8 118.0,82.9 C113.7,91.6 109.6,100.5 104.9,109.1 C102.5,113.4 98.1,113.0 96.2,108.4 C94.8,105.1 94.2,101.5 93.5,98.7 C87.6,101.8 82.2,105.8 76.0,107.7 C68.8,109.9 62.8,106.5 59.5,100.0 C54.1,107.8 49.1,115.3 43.9,122.6 C41.7,125.7 37.8,127.4 34.9,125.6 C32.4,124.1 30.4,120.2 30.2,117.3 C29.9,111.8 31.1,106.3 31.7,100.7 C32.3,94.2 32.9,87.7 33.6,81.2 C32.9,81.0 32.3,80.8 31.6,80.6 C29.9,82.7 28.0,84.7 26.6,87.0 C23.3,92.1 20.3,97.5 17.0,102.6 C11.8,110.8 9.6,111.4 1.0,108.0 M252.0,33.5 C248.8,41.4 245.6,49.4 242.4,57.4 C254.3,50.3 270.2,24.3 266.0,11.9 C263.7,14.3 261.5,16.1 260.1,18.4 C257.1,23.0 254.7,27.9 252.0,33.5 M342.6,117.9 C341.6,118.9 340.6,119.7 339.8,120.8 C335.3,126.7 329.9,132.1 330.1,140.3 C330.1,141.8 330.9,143.3 331.3,144.8 C332.8,144.1 334.6,143.6 335.9,142.6 C341.8,137.7 344.4,130.9 347.0,124.1 C348.4,120.3 349.3,116.3 350.4,112.4 C349.9,112.1 349.4,111.7 348.8,111.4 C346.9,113.4 344.9,115.4 342.6,117.9 M401.1,104.0 C395.6,104.2 386.8,113.3 387.0,118.7 C387.1,121.6 391.3,125.6 393.9,124.9 C399.3,123.5 403.5,120.5 405.5,115.0 C407.2,110.4 405.1,107.2 401.1,104.0 M160.0,113.9 C159.9,116.7 159.2,119.8 160.1,122.2 C160.7,123.6 163.9,124.9 165.8,124.8 C170.0,124.7 177.4,117.5 177.9,113.3 C178.4,108.1 174.6,105.4 170.5,102.6 C167.0,106.2 163.6,109.7 160.0,113.9 M289.0,84.5 C291.3,82.2 291.1,79.5 288.4,78.2 C286.5,77.3 283.0,77.2 281.5,78.3 C275.9,82.5 273.4,88.7 273.1,95.6 C273.0,97.0 274.1,98.5 274.6,99.9 C275.8,99.3 277.5,99.0 278.3,98.1 C281.8,93.8 285.1,89.4 289.0,84.5 M223.5,76.0 C223.9,75.3 224.2,74.5 224.6,73.9 C227.0,70.7 225.8,68.0 222.9,66.7 C221.7,66.2 218.3,67.7 217.6,69.2 C215.0,74.1 212.9,79.3 211.2,84.5 C210.5,86.4 211.6,88.9 211.9,91.1 C212.6,91.3 213.3,91.4 214.0,91.6 C217.0,86.6 220.0,81.6 223.5,76.0 M21.9,54.6 C29.2,45.7 35.3,36.2 36.3,23.2 C34.3,24.2 32.7,24.5 32.3,25.4 C28.1,34.9 24.1,44.6 20.1,54.3 C20.1,54.4 20.8,54.7 21.9,54.6 M76.5,80.0 C78.3,76.6 80.1,73.2 82.3,68.9 C76.3,69.9 72.3,76.7 72.5,82.9 C72.8,82.9 73.2,83.0 73.4,82.8 C74.3,82.1 75.1,81.3 76.5,80.0 z"/></svg>
