<svg xmlns="http://www.w3.org/2000/svg" viewBox="39.6 32.5 612 612"><!-- Whensdays logo: retro layered W. Source trace cleaned (black bg + white halo paths removed). --><path fill="#2f2440" opacity="1.0" stroke="none" d="M433.7,285.3 C436.2,282.7 435.4,279.3 436.8,276.2 C436.0,272.7 437.6,269.7 437.8,266.2 C438.0,265.9 438.0,266.0 437.9,266.0 C438.3,265.7 438.5,265.3 438.5,264.5 C438.5,263.3 438.4,262.4 438.8,261.2 C438.9,260.9 439.0,261.0 438.9,261.0 C439.8,258.0 440.4,254.8 440.8,251.2 C441.0,250.9 441.0,251.0 440.9,251.0 C442.3,246.7 443.2,242.2 443.7,237.2 C443.9,236.9 443.9,237.0 443.9,237.0 C445.0,236.1 444.2,234.7 444.8,233.2 C444.9,232.9 444.9,233.0 444.9,233.0 C447.0,225.6 449.2,218.2 450.8,210.2 C451.0,209.9 451.0,210.0 450.9,210.0 C451.3,209.7 451.5,209.2 451.5,208.3 C454.9,193.7 459.4,179.9 463.3,165.9 C465.4,158.2 468.7,150.7 472.7,143.2 C472.9,142.9 472.9,143.0 472.9,143.0 C474.2,141.4 474.7,139.3 475.7,137.2 C475.9,136.9 475.9,137.0 475.9,137.0 C476.4,136.6 476.5,136.0 476.8,135.2 C476.9,134.9 477.0,135.0 476.9,134.9 C480.2,130.4 482.8,125.4 485.7,120.2 C485.9,119.9 485.9,120.0 485.9,119.9 C488.2,117.7 489.3,114.6 491.8,112.1 C492.0,111.9 492.0,112.0 492.0,112.1 C493.3,109.4 495.6,107.5 497.7,105.0 C497.8,104.7 497.8,104.8 497.8,104.8 C501.4,102.5 503.5,98.3 507.7,96.1 C507.9,95.9 507.9,96.0 507.9,96.0 C508.2,95.8 508.4,95.6 508.8,95.1 C508.9,94.9 509.0,94.9 508.9,94.9 C509.8,94.4 510.8,94.1 511.7,93.1 C511.9,92.9 512.0,93.0 512.0,92.9 C515.9,90.9 519.4,88.2 523.7,86.1 C524.0,85.9 524.0,86.0 523.9,86.0 C536.9,79.9 550.4,76.2 564.9,76.0 C578.6,75.7 590.6,80.8 602.5,87.7 C612.3,93.9 620.4,101.3 626.4,110.9 C631.2,118.5 634.0,126.9 636.7,135.9 C638.8,142.7 638.1,149.4 637.8,155.9 C637.7,159.7 637.6,163.5 637.5,167.7 C632.7,178.4 628.9,189.2 621.0,197.9 C610.3,209.6 597.8,217.9 581.6,220.8 C580.0,221.0 578.9,221.1 577.4,221.8 C572.4,223.3 567.8,224.5 562.9,224.3 C560.2,224.2 558.8,225.6 558.1,228.3 C554.6,242.9 551.8,257.5 548.6,272.1 C544.8,290.1 541.6,308.3 537.7,326.3 C534.2,342.8 531.7,359.6 528.1,376.1 C524.6,391.6 522.3,407.4 516.1,422.2 C509.9,436.9 500.2,448.8 487.5,457.8 C472.5,468.5 455.4,473.8 436.9,473.0 C428.4,472.7 420.1,471.0 411.8,467.9 C410.5,467.4 409.8,466.6 408.4,466.3 C400.5,463.2 393.6,459.1 386.9,453.8 C386.3,453.3 385.9,452.9 385.3,452.3 C372.5,443.2 365.4,430.1 357.5,417.6 C355.6,414.7 353.4,411.9 351.6,408.9 C349.7,405.8 348.0,406.0 346.1,408.9 C342.3,414.3 339.1,420.2 335.6,425.8 C323.1,445.6 306.1,459.9 284.5,468.8 C273.9,473.2 262.5,473.8 251.1,472.9 C234.6,471.6 219.9,465.3 206.1,456.5 C188.9,445.4 179.1,429.2 174.0,409.9 C165.5,377.8 157.9,345.4 151.3,312.8 C150.3,308.1 148.1,306.8 143.8,307.1 C131.3,307.8 119.1,306.2 107.5,301.9 C86.4,294.0 70.3,280.2 60.2,259.9 C58.2,255.9 57.5,251.3 56.4,246.6 C53.9,236.5 51.1,226.8 52.0,216.6 C52.1,214.8 51.9,213.0 53.0,210.9 C54.4,195.8 60.2,182.7 68.7,170.3 C68.9,169.9 68.9,169.9 68.9,169.9 C75.6,161.4 82.9,153.6 92.1,147.7 C103.5,140.3 115.6,135.4 129.1,133.2 C138.0,131.8 146.9,131.8 155.8,132.2 C161.5,132.5 167.3,133.2 173.2,135.0 C179.3,136.4 184.6,138.8 190.3,141.2 C201.2,147.0 210.9,153.8 219.1,163.1 C221.8,166.4 224.3,169.3 226.8,172.7 C227.1,172.9 227.0,172.9 227.0,172.9 C227.8,173.6 227.9,174.7 228.8,175.7 C229.1,175.9 229.2,175.9 229.2,175.9 C229.5,179.6 231.9,182.3 233.3,185.5 C234.0,187.1 235.0,188.7 235.0,191.0 C237.2,194.4 237.7,198.1 238.7,201.9 C239.1,203.9 240.4,205.0 240.9,206.8 C241.0,208.0 241.0,208.9 241.9,209.8 C242.1,210.0 242.0,210.0 242.0,209.9 C242.7,214.9 245.1,219.5 245.2,225.0 C246.7,227.5 247.2,229.8 247.1,232.7 C247.3,233.5 247.4,234.0 247.8,234.7 C248.0,235.0 248.0,235.0 248.0,235.0 C249.6,242.0 252.3,248.8 253.4,256.4 C254.0,258.2 254.1,259.7 254.8,261.5 C256.1,268.7 258.6,275.4 259.8,282.6 C260.0,282.9 260.3,283.0 260.2,283.2 C261.2,285.2 260.7,287.4 261.6,289.6 C261.9,290.1 262.0,290.2 262.0,290.7 C264.7,292.3 264.1,295.0 264.7,297.3 C265.2,299.6 265.5,302.1 266.7,304.6 C269.9,316.5 272.6,328.2 275.9,339.6 C276.3,340.7 276.5,341.9 277.1,342.9 C279.4,347.5 281.6,347.9 286.3,344.4 C289.7,340.8 293.0,337.6 295.7,333.4 C300.5,328.7 300.3,324.2 297.6,318.5 C294.5,312.0 290.3,305.9 289.1,298.2 C289.0,297.0 288.9,296.2 288.3,295.1 C285.7,289.2 284.2,283.4 282.2,277.4 C281.8,276.0 282.0,274.9 281.1,273.7 C280.6,272.8 280.4,272.2 280.1,271.3 C279.9,270.2 279.7,269.4 278.9,268.5 C278.2,267.4 277.9,266.4 277.5,265.1 C277.1,263.9 276.9,263.1 276.3,262.1 C272.8,254.1 269.5,246.4 267.7,237.7 C267.5,236.5 267.4,235.7 266.8,234.6 C266.3,233.7 266.0,233.1 265.6,232.2 C265.1,230.8 265.3,229.6 265.5,228.1 C265.4,227.3 265.3,226.9 265.1,226.1 C264.7,224.1 264.5,222.5 264.2,220.5 C263.9,219.7 263.7,219.2 263.5,218.3 C263.5,216.0 263.5,214.1 263.5,211.8 C263.5,207.2 263.5,203.0 263.5,198.4 C263.5,194.9 263.4,191.8 263.7,188.3 C263.9,187.9 264.0,188.0 263.9,187.9 C265.9,186.2 264.4,183.5 265.8,181.2 C266.0,180.9 266.0,181.0 265.9,181.0 C267.6,177.6 268.1,173.8 270.3,170.2 C271.0,167.5 272.5,165.6 273.7,163.2 C273.9,162.9 274.0,163.0 273.9,163.0 C274.9,162.4 274.9,161.2 275.7,160.1 C275.9,159.9 275.9,160.0 275.9,160.0 C276.9,158.8 277.4,157.3 278.9,156.0 C279.4,155.5 279.7,155.2 280.3,154.6 C281.1,153.0 282.2,151.9 283.4,150.5 C285.8,147.6 288.5,145.5 290.9,142.6 C300.5,134.9 310.3,128.3 322.4,124.9 C336.0,120.9 349.5,120.9 363.4,122.2 C364.9,122.5 365.8,123.1 367.1,123.5 C369.4,124.0 371.3,124.5 373.6,124.9 C385.4,128.3 395.2,134.4 404.8,141.9 C407.4,143.0 408.2,145.6 410.3,147.3 C414.4,151.5 417.5,156.0 421.1,160.6 C427.3,170.4 431.1,180.6 432.5,192.1 C434.4,200.5 434.6,208.5 432.5,216.9 C432.0,220.5 431.6,223.8 431.9,227.5 C426.9,240.0 422.7,252.4 418.1,264.7 C411.8,281.0 406.3,297.6 398.3,313.2 C396.7,316.3 397.7,318.7 399.7,320.9 C402.3,323.8 404.5,326.9 406.9,330.3 C409.9,333.2 412.4,336.3 416.1,338.2 C419.5,338.9 419.6,336.4 420.2,334.6 C422.0,329.1 422.5,323.3 423.8,317.6 C425.8,308.9 427.6,300.1 430.4,291.2 C432.3,289.5 432.2,287.2 433.7,285.3 z"/><path fill="#3aa38b" opacity="1.0" stroke="none" d="M545.2,465.2 C544.9,465.5 544.9,465.5 544.9,465.5 C544.8,466.0 544.6,466.5 544.5,467.5 C540.9,490.1 536.7,512.2 532.2,534.7 C532.0,535.1 532.0,535.0 532.1,535.0 C530.3,539.4 528.2,543.7 526.7,548.7 C524.2,552.5 523.2,556.6 520.7,560.5 C519.4,561.8 518.6,563.3 517.6,564.9 C515.9,567.3 514.0,569.2 512.5,571.7 C511.6,572.8 510.8,573.5 510.2,574.8 C510.1,575.1 510.1,575.0 510.1,575.0 C509.8,575.2 509.6,575.4 509.2,575.9 C509.1,576.1 509.0,576.0 509.0,576.1 C508.2,576.9 506.9,577.4 506.2,578.8 C506.0,579.1 506.0,579.0 506.1,579.0 C505.8,579.2 505.6,579.4 505.2,579.9 C505.1,580.1 505.0,580.0 505.1,580.1 C504.8,580.2 504.6,580.4 504.2,580.9 C504.1,581.1 504.0,581.0 504.0,581.1 C503.5,581.4 502.9,581.6 502.2,582.3 C501.4,582.9 500.9,583.2 500.2,583.9 C500.0,584.1 500.0,584.0 500.1,584.0 C499.1,585.1 497.7,585.9 496.2,586.9 C496.0,587.1 496.0,587.0 496.0,587.0 C492.3,589.3 488.3,591.2 484.1,593.4 C478.2,597.6 471.5,598.0 464.9,599.9 C462.8,600.0 461.1,600.0 459.0,600.0 C448.0,601.0 437.6,600.5 426.7,598.9 C416.4,597.3 408.4,591.6 399.3,587.3 C398.9,587.1 399.0,587.0 399.0,587.1 C397.0,584.9 395.0,582.8 392.4,580.9 C391.9,580.6 391.7,580.5 391.2,580.2 C390.9,580.1 391.0,580.0 391.0,580.1 C380.0,569.0 371.6,556.3 364.7,542.0 C362.0,533.3 357.8,525.5 356.2,516.8 C355.9,515.1 355.9,513.2 354.5,511.4 C354.1,511.0 354.0,510.8 353.9,510.3 C353.5,509.5 353.0,509.5 352.5,510.0 C352.5,510.3 352.4,510.4 352.3,510.4 C350.7,511.0 351.9,512.5 351.3,513.8 C351.1,514.1 351.0,514.0 351.1,514.0 C350.7,514.4 350.5,514.8 350.3,515.6 C347.4,525.4 343.9,534.7 340.8,544.5 C339.7,546.8 339.1,548.8 337.7,550.9 C337.1,553.1 336.1,554.7 335.3,556.8 C335.1,557.1 335.0,557.0 335.1,557.0 C333.6,558.6 333.4,560.7 332.2,562.8 C332.1,563.1 332.0,563.0 332.1,563.0 C328.4,566.8 326.3,571.8 322.3,575.8 C322.1,576.1 322.0,576.0 322.1,576.0 C321.8,576.3 321.5,576.5 321.1,577.1 C320.5,577.8 320.2,578.3 319.6,578.9 C318.4,579.5 317.3,579.8 316.2,580.9 C316.0,581.1 316.0,581.0 316.1,581.0 C313.8,582.7 312.0,585.2 309.2,586.8 C309.0,587.1 309.0,587.0 309.0,587.0 C305.2,589.3 301.4,591.7 297.3,594.3 C295.1,595.2 293.2,595.7 291.1,596.7 C287.9,598.2 284.6,598.5 281.3,599.7 C270.6,601.1 260.2,601.1 249.4,601.0 C247.6,600.9 246.2,600.5 244.4,600.3 C236.1,600.3 229.2,596.6 221.6,594.0 C214.7,590.7 209.1,586.1 203.2,581.3 C202.9,581.1 203.0,581.0 203.0,581.1 C200.7,578.5 198.0,576.2 195.6,573.3 C185.4,561.0 178.6,547.4 174.4,532.0 C170.6,528.2 171.4,523.3 170.5,519.2 C167.6,506.0 164.7,492.9 161.5,479.4 C159.1,473.3 159.4,467.1 157.6,461.2 C155.5,453.9 154.2,446.3 152.6,438.4 C151.4,435.5 149.2,434.7 146.8,434.8 C131.0,435.7 116.2,431.8 101.3,426.3 C100.9,426.1 101.0,426.0 101.0,426.1 C99.6,425.0 98.0,424.2 96.2,423.3 C95.9,423.1 96.0,423.0 96.0,423.1 C95.1,421.8 93.7,421.1 92.2,420.3 C91.9,420.1 92.0,420.0 92.0,420.1 C91.1,418.8 89.8,418.1 88.2,417.3 C87.9,417.1 88.0,417.0 88.0,417.0 C86.7,415.6 85.4,414.1 83.2,413.3 C82.9,413.1 83.0,413.0 82.9,413.1 C77.7,408.5 72.9,403.5 69.2,397.3 C68.9,397.1 69.0,397.0 68.9,397.1 C64.3,389.9 62.8,381.7 61.0,373.5 C59.1,365.1 58.4,356.6 57.4,347.8 C60.9,345.7 61.9,348.6 62.4,350.4 C66.3,363.8 74.3,374.4 83.8,384.2 C90.6,391.1 98.9,395.6 107.8,399.0 C120.2,403.8 133.1,405.7 146.3,405.9 C153.0,406.0 154.5,407.1 155.9,413.5 C160.1,432.5 165.0,451.4 169.6,470.3 C173.6,487.0 178.0,503.6 184.2,519.4 C192.1,539.3 205.3,555.1 224.6,565.2 C239.4,573.0 255.6,574.9 271.6,572.5 C294.1,569.1 312.1,557.3 325.2,538.4 C335.4,523.9 341.5,507.6 346.0,490.7 C346.6,488.6 347.2,486.5 348.1,484.5 C348.8,482.7 350.0,481.3 352.1,481.2 C354.1,481.2 355.6,482.4 356.4,484.1 C357.4,486.2 358.5,488.3 359.3,490.5 C364.8,503.7 369.6,517.1 376.6,529.7 C387.1,548.7 402.3,562.2 423.2,568.7 C434.9,572.4 446.7,573.7 459.4,571.5 C489.2,566.1 508.2,548.4 520.4,521.9 C526.9,507.8 530.1,493.0 532.2,477.8 C533.1,470.9 535.3,464.2 536.4,457.3 C538.7,443.1 541.5,428.9 544.4,414.8 C546.9,402.6 548.8,390.4 551.3,378.2 C553.1,369.2 554.4,359.9 556.3,350.9 C558.2,341.9 559.5,332.7 561.6,323.7 C562.6,319.4 566.1,319.1 569.8,318.8 C581.3,317.9 592.5,315.5 602.9,310.4 C615.1,304.4 623.9,294.7 630.7,283.2 C632.2,280.6 634.0,278.2 635.2,275.4 C635.9,273.9 637.0,272.6 639.3,273.2 C639.3,282.9 640.1,292.3 638.1,301.6 C637.4,305.1 635.6,308.1 634.3,311.7 C634.1,312.1 634.1,312.0 634.1,312.0 C633.6,312.4 633.5,313.0 633.3,313.8 C633.1,314.1 633.1,314.1 633.1,314.1 C632.4,314.6 631.9,315.1 631.2,315.9 C631.0,316.1 631.0,316.0 631.1,316.0 C630.6,316.4 630.5,317.0 630.3,317.8 C630.1,318.1 630.1,318.0 630.1,318.1 C629.4,318.5 628.9,319.1 628.2,319.9 C628.0,320.1 628.0,320.0 628.1,320.0 C627.6,320.4 627.5,321.0 627.3,321.8 C627.1,322.1 627.0,322.0 627.1,322.0 C626.8,322.2 626.5,322.4 626.2,322.9 C626.0,323.1 626.0,323.0 626.1,323.0 C625.8,323.2 625.6,323.4 625.2,323.9 C625.0,324.1 625.0,324.0 625.0,324.1 C624.3,324.8 623.4,325.2 622.3,325.8 C622.0,326.6 621.9,327.2 621.6,327.8 C621.0,328.2 620.7,328.4 620.2,328.9 C620.0,329.1 620.0,329.0 620.1,329.1 C618.6,329.6 617.7,330.8 616.2,331.9 C616.0,332.1 616.0,332.0 616.1,332.0 C615.8,332.2 615.6,332.4 615.2,332.9 C615.0,333.1 615.0,333.0 615.1,333.0 C614.2,333.6 613.2,333.9 612.2,334.9 C612.0,335.1 612.0,335.0 612.1,335.1 C611.6,335.4 611.0,335.5 610.2,335.9 C610.0,336.1 610.0,336.1 610.1,336.1 C608.6,336.9 606.8,337.3 605.3,338.9 C605.1,339.1 605.0,339.0 605.1,339.1 C596.0,344.1 585.9,345.7 575.4,347.2 C574.7,347.4 574.3,347.5 574.0,347.5 C566.0,347.6 566.5,346.9 565.1,356.2 C564.8,358.0 564.7,359.8 563.7,361.8 C562.5,367.5 562.5,373.0 560.6,378.7 C559.3,386.2 558.7,393.4 556.7,400.7 C555.0,416.7 550.6,431.7 548.9,447.2 C548.8,448.1 548.3,448.8 547.7,449.9 C547.2,455.2 546.3,460.0 545.2,465.2 z"/><path fill="#e9a13b" opacity="1.0" stroke="none" d="M415.4,339.9 C412.2,337.5 408.6,335.8 406.1,332.4 C405.0,329.8 405.3,327.6 406.3,325.4 C414.5,307.7 420.7,289.4 426.2,270.7 C426.7,269.0 427.3,267.2 428.2,265.6 C429.1,264.1 430.2,262.8 432.3,264.3 C432.5,267.6 432.6,270.6 432.2,273.9 C432.0,274.7 432.0,275.2 431.9,276.0 C431.7,278.1 431.4,279.8 431.4,282.0 C430.2,291.2 428.1,299.9 425.4,308.3 C423.2,315.3 422.4,322.5 420.4,329.5 C419.3,333.2 418.1,336.7 415.4,339.9 z"/><path fill="#ee6c4d" opacity="1.0" stroke="none" d="M143.6,271.7 C145.7,279.5 147.6,287.1 149.2,294.7 C150.1,298.8 147.0,298.7 144.3,299.0 C129.6,300.5 116.0,296.9 102.9,290.4 C80.7,279.5 67.6,261.5 62.0,237.6 C55.6,210.6 64.1,187.7 81.3,167.5 C93.5,153.1 109.8,144.9 128.2,140.9 C154.9,135.1 179.7,140.6 201.5,156.6 C214.0,165.9 223.3,178.5 228.6,193.5 C235.0,211.5 239.4,230.0 244.2,248.4 C248.4,264.7 252.2,281.1 256.3,297.4 C260.2,312.8 264.2,328.2 268.1,343.6 C269.5,349.1 272.2,354.6 278.6,355.9 C284.9,357.1 289.7,354.4 293.6,349.2 C305.6,333.5 318.2,318.2 328.0,301.1 C342.9,275.0 357.7,248.7 363.6,218.6 C364.8,212.3 365.6,205.5 361.6,199.8 C356.3,192.1 349.9,191.3 342.0,193.7 C334.7,195.9 330.2,204.7 331.4,213.2 C332.7,223.5 335.3,233.5 339.3,243.0 C343.7,253.3 342.6,262.2 337.8,272.3 C330.3,287.9 320.5,301.8 311.2,316.2 C310.4,317.4 309.4,318.5 308.1,320.3 C305.8,314.4 303.7,309.1 301.6,303.8 C295.4,288.4 289.2,273.1 283.2,257.7 C278.6,245.8 274.4,233.9 271.6,221.4 C269.9,213.6 269.5,205.9 270.2,198.2 C272.0,178.0 280.7,161.0 296.1,147.5 C305.9,138.8 317.3,133.5 329.8,130.3 C340.1,127.6 350.6,128.8 361.5,129.1 C362.8,129.0 363.7,129.0 364.7,129.6 C371.2,132.2 377.5,134.2 383.5,137.0 C396.1,143.1 406.0,152.4 413.9,164.1 C421.7,175.5 424.6,188.3 426.6,201.4 C427.9,210.5 424.7,219.6 421.7,228.1 C415.2,246.8 408.4,265.4 401.1,283.7 C392.3,305.8 382.6,327.4 370.3,347.9 C362.1,361.6 356.1,376.5 348.1,390.3 C337.3,409.0 327.3,428.6 311.0,443.1 C289.0,462.5 260.2,470.9 230.9,458.9 C204.8,448.2 188.6,429.1 181.9,401.7 C176.3,379.0 171.5,356.1 165.8,333.5 C160.3,312.0 156.8,290.0 150.7,268.6 C147.7,258.2 143.8,248.2 136.9,239.6 C133.8,235.8 130.2,232.8 124.9,229.4 C129.6,240.2 139.1,246.6 140.8,257.7 C137.4,262.1 132.1,263.2 126.3,261.3 C110.6,256.2 101.6,244.7 97.6,229.4 C95.7,222.3 95.9,214.7 99.2,207.4 C101.6,201.9 103.9,196.5 107.8,191.8 C116.3,181.6 127.5,176.5 140.3,175.1 C151.3,174.0 162.2,174.6 172.4,180.2 C182.4,185.7 188.7,194.3 192.9,204.5 C200.2,222.0 204.3,240.6 209.0,258.9 C213.4,276.1 217.3,293.4 221.4,310.7 C225.0,325.5 228.7,340.3 232.0,355.2 C234.5,366.4 236.2,377.7 240.4,388.5 C242.9,395.2 246.7,400.9 253.2,404.5 C257.4,406.8 261.9,407.7 266.6,405.4 C267.4,404.9 268.4,404.4 268.3,403.2 C268.1,402.2 267.1,402.1 266.3,402.0 C265.1,401.9 264.1,401.4 262.9,401.2 C255.1,400.1 250.6,395.4 247.9,388.3 C245.5,381.5 243.8,374.6 242.2,367.7 C239.9,358.1 237.5,348.7 235.4,339.1 C231.2,320.3 226.3,301.7 222.0,282.9 C218.6,268.0 214.4,253.3 210.6,238.5 C207.5,226.1 204.0,213.8 199.4,201.9 C191.6,181.9 176.7,170.3 155.5,167.2 C136.3,164.5 119.4,170.3 105.6,183.4 C93.5,194.9 88.4,209.9 90.6,226.5 C93.4,248.3 106.0,262.3 126.8,269.0 C130.1,270.0 133.4,269.7 136.7,269.9 C139.0,270.0 141.5,269.5 143.6,271.7 z"/><path fill="#ee6c4d" opacity="1.0" stroke="none" d="M526.3,342.8 C523.5,351.9 522.9,361.1 521.0,370.6 C521.0,371.6 520.8,372.1 520.3,372.8 C520.0,378.9 517.9,384.4 517.1,390.6 C517.0,391.6 516.9,392.1 516.3,392.8 C516.1,393.7 516.0,394.4 516.0,395.5 C515.8,396.1 515.7,396.2 515.4,396.7 C513.5,404.4 511.8,411.8 508.6,418.7 C499.6,438.7 485.4,453.2 464.6,460.9 C459.2,462.9 453.8,465.0 447.4,465.2 C446.4,465.1 445.9,465.2 445.1,465.6 C441.9,465.7 439.0,465.7 435.6,465.7 C434.4,465.3 433.6,465.0 432.3,465.0 C425.0,464.0 418.2,462.4 411.5,459.8 C396.4,453.8 385.3,443.0 376.3,430.1 C368.5,419.1 361.7,407.5 354.5,396.2 C353.4,394.5 353.1,393.1 354.2,391.2 C366.0,371.5 376.0,350.9 387.1,330.8 C390.1,325.3 391.0,325.3 394.7,330.6 C399.8,338.0 406.0,344.1 413.5,349.0 C418.9,352.5 422.1,351.7 426.1,346.5 C430.1,341.4 430.9,335.3 431.9,329.3 C434.1,316.7 437.3,304.3 440.0,291.9 C442.9,278.8 444.7,265.5 448.1,252.5 C454.1,230.1 459.2,207.4 466.4,185.2 C472.3,167.3 478.9,149.8 487.8,133.2 C500.4,110.0 518.8,94.0 544.3,86.6 C564.2,80.9 582.8,84.2 600.2,94.9 C612.4,102.4 621.1,113.1 626.2,126.2 C633.7,145.3 632.7,164.2 622.2,182.3 C619.6,187.0 616.1,190.8 612.2,195.0 C611.8,195.3 611.6,195.4 611.3,195.7 C607.2,200.3 602.4,203.6 597.3,207.0 C596.8,207.3 596.6,207.4 596.2,207.8 C586.6,212.3 576.9,215.4 566.3,214.9 C560.1,214.5 559.6,214.1 561.5,208.2 C564.3,199.1 567.9,190.4 574.8,183.2 C591.1,176.4 598.0,168.7 599.7,151.7 C601.1,137.2 591.0,121.2 577.7,116.1 C561.9,109.9 547.2,113.0 533.5,122.8 C516.5,135.1 508.1,153.2 500.4,171.7 C494.6,185.7 490.5,200.2 486.6,214.8 C482.4,230.4 479.5,246.3 475.9,262.0 C471.0,283.2 467.3,304.6 462.2,325.7 C459.0,339.1 457.2,352.9 453.9,366.3 C452.1,373.7 448.8,380.0 441.4,383.1 C450.4,382.4 457.4,376.7 460.0,367.8 C463.5,355.6 464.8,343.0 467.8,330.7 C472.6,311.9 475.7,292.7 479.3,273.6 C480.9,265.0 483.7,256.6 485.5,248.0 C487.1,241.0 488.1,233.8 490.2,227.1 C494.5,213.1 497.2,198.7 502.3,184.9 C506.7,172.9 511.3,161.0 518.2,150.1 C525.8,138.0 534.4,127.0 548.6,121.9 C558.7,118.3 568.5,117.9 577.8,123.6 C590.5,131.4 595.6,147.8 590.2,162.3 C588.9,166.1 587.2,169.7 584.7,173.3 C582.8,174.7 580.7,174.9 578.4,176.1 C568.1,180.9 562.3,189.2 558.5,198.6 C553.2,211.6 550.3,225.2 547.8,239.4 C547.4,240.4 547.0,241.0 546.5,241.8 C546.1,248.0 544.0,253.5 542.9,259.6 C543.0,260.5 542.9,261.1 542.4,261.8 C539.9,272.8 537.4,283.6 535.3,294.5 C532.4,309.7 529.8,324.9 527.0,340.6 C527.0,341.6 526.8,342.1 526.3,342.8 z"/><path fill="#3aa38b" opacity="1.0" stroke="none" d="M635.6,169.1 C636.5,169.5 637.0,170.1 637.9,170.9 C638.6,179.7 639.6,188.4 638.3,197.6 C636.7,201.4 637.9,205.0 637.5,208.9 C631.3,233.8 615.2,249.2 592.2,257.9 C584.5,260.8 576.3,262.6 567.8,262.2 C564.5,262.0 562.8,263.5 562.1,267.0 C557.2,288.8 552.8,310.7 548.7,332.6 C546.1,346.7 543.6,360.7 541.1,374.8 C539.1,386.0 536.2,397.1 534.3,408.3 C532.2,420.5 529.8,432.5 526.1,444.2 C521.0,460.7 513.6,476.2 501.3,488.6 C489.0,501.2 473.8,508.9 456.4,511.9 C434.0,515.7 413.3,510.6 394.7,498.1 C382.7,490.1 373.1,479.6 366.1,466.6 C360.6,456.3 357.0,445.3 352.9,434.5 C351.9,431.9 351.1,429.2 349.4,426.9 C347.5,427.6 347.5,429.1 347.3,430.3 C344.9,441.7 340.5,452.5 336.0,463.2 C333.2,469.8 328.6,475.2 324.2,480.5 C309.5,498.0 291.6,509.9 268.1,512.3 C245.7,514.6 225.2,509.9 207.2,496.8 C192.3,486.1 181.9,471.5 176.2,453.8 C171.3,438.6 167.1,423.2 163.3,407.8 C159.3,391.8 155.3,375.7 151.8,359.6 C151.3,357.3 150.3,355.1 149.9,352.9 C148.9,347.7 145.7,347.1 141.2,347.0 C131.2,347.0 121.3,347.8 111.3,346.3 C100.0,344.6 91.1,338.5 83.2,331.2 C73.8,322.6 66.9,312.0 61.0,300.7 C58.6,296.2 58.6,291.4 57.3,286.4 C57.1,273.3 57.1,260.6 57.1,247.5 C60.8,257.7 66.1,267.5 73.4,276.0 C85.9,290.5 101.9,299.3 120.8,303.3 C129.6,305.1 138.3,305.3 147.1,304.9 C151.1,304.7 152.2,306.6 153.0,310.0 C156.9,328.5 160.4,347.2 165.2,365.5 C169.4,382.1 172.6,398.9 177.9,415.2 C184.4,435.4 197.2,450.1 216.0,459.9 C230.8,467.6 246.3,471.8 263.0,470.9 C276.0,470.3 287.6,465.8 298.9,459.1 C317.9,447.9 330.1,431.1 341.0,412.8 C342.5,410.2 344.7,408.0 345.9,405.3 C348.2,400.5 349.8,402.5 351.9,405.5 C360.5,417.3 367.2,430.4 376.6,441.8 C379.5,445.4 383.6,447.2 386.9,450.8 C387.2,451.2 387.3,451.3 387.7,451.7 C394.0,457.0 400.8,460.9 408.4,464.1 C409.4,464.4 410.0,465.0 410.8,465.6 C421.2,468.8 431.5,471.5 442.2,470.8 C455.6,470.1 468.0,466.8 479.9,459.9 C491.1,453.3 500.1,444.7 507.2,434.3 C513.7,424.7 517.6,413.7 520.2,402.3 C525.7,378.4 529.6,354.2 534.5,330.2 C537.7,314.3 540.9,298.3 544.3,282.4 C548.3,263.6 552.5,244.9 556.2,226.0 C556.7,223.7 557.9,221.8 560.4,222.0 C566.2,222.3 571.7,221.0 577.6,219.9 C578.5,219.5 578.9,219.2 579.7,219.0 C598.0,216.1 611.8,206.5 622.8,192.3 C627.2,186.5 630.1,180.0 632.7,173.5 C633.4,171.9 634.0,170.4 635.6,169.1 z"/><path fill="#f8e3c9" opacity="1.0" stroke="none" d="M143.9,271.5 C116.2,275.0 96.1,257.4 89.8,235.1 C85.4,219.3 87.7,203.6 97.7,189.5 C109.5,173.1 126.0,165.0 145.4,164.4 C164.8,163.8 181.8,170.7 193.9,187.2 C200.9,196.9 203.6,208.1 207.4,219.1 C212.2,232.9 214.8,247.2 219.2,261.1 C222.2,270.5 223.8,280.4 226.1,290.1 C231.2,311.5 236.2,333.0 241.4,354.4 C243.9,365.0 246.2,375.6 249.3,386.1 C252.2,395.9 258.9,399.4 268.2,399.9 C269.8,400.0 272.0,399.3 272.6,401.3 C273.3,403.4 271.5,404.6 270.1,405.9 C265.8,409.7 257.4,409.9 251.4,406.3 C242.5,401.0 238.6,392.4 236.3,383.1 C232.5,368.2 229.8,353.0 226.0,338.1 C221.0,318.5 216.5,298.9 211.9,279.2 C208.0,262.6 203.1,246.2 199.1,229.7 C197.3,222.2 194.5,215.1 191.9,208.0 C185.6,190.2 173.5,178.6 154.2,177.0 C133.5,175.3 115.6,181.1 104.7,200.1 C95.3,216.6 97.0,234.7 111.1,249.4 C116.5,255.2 123.0,258.3 130.4,259.8 C133.7,260.5 137.0,259.9 140.4,258.2 C141.8,262.5 142.9,266.8 143.9,271.5 z"/><path fill="#f8e3c9" opacity="1.0" stroke="none" d="M578.0,176.4 C577.6,176.1 577.5,176.0 577.5,176.1 C579.3,175.4 580.8,174.2 582.8,173.2 C586.6,165.3 590.5,157.9 590.1,148.9 C589.3,133.4 578.2,121.4 562.4,121.3 C552.6,121.3 543.2,124.8 535.6,131.8 C520.8,145.5 512.7,163.2 505.8,181.7 C501.5,193.4 499.1,205.7 495.5,217.5 C490.6,233.6 488.1,250.2 483.7,266.4 C478.5,285.6 476.9,305.6 471.7,324.8 C467.8,339.3 466.2,354.2 462.1,368.6 C459.3,378.4 449.6,386.2 439.7,385.9 C437.9,385.9 435.6,385.7 435.5,383.4 C435.4,381.6 437.4,381.4 438.9,381.2 C445.4,380.7 448.3,375.8 450.2,370.7 C454.6,358.3 455.6,345.0 458.8,332.3 C463.6,313.0 466.5,293.3 471.4,273.9 C474.3,262.6 476.1,250.9 478.5,239.3 C482.2,221.0 487.0,202.8 493.0,185.0 C498.2,170.0 504.0,155.1 512.8,141.7 C520.7,129.7 530.6,119.6 544.2,114.2 C573.0,102.8 602.0,119.8 601.8,152.0 C601.7,166.2 591.9,179.4 578.7,184.1 C577.4,184.6 576.4,184.6 575.4,183.2 C575.7,180.6 578.8,179.6 578.0,176.4 z"/><path fill="#3aa38b" opacity="1.0" stroke="none" d="M430.6,228.3 C432.2,239.7 431.4,251.4 431.4,263.5 C428.3,269.0 427.5,274.8 425.8,280.3 C420.2,297.7 413.9,314.8 406.1,331.7 C402.7,327.9 399.5,323.8 396.1,319.7 C394.5,317.8 394.4,316.1 395.6,313.8 C407.7,289.5 416.0,263.6 425.3,238.1 C426.6,234.6 429.1,231.9 430.6,228.3 z"/><path fill="#3aa38b" opacity="1.0" stroke="none" d="M266.5,272.3 C266.5,258.9 266.7,245.9 267.0,232.4 C267.4,232.5 267.8,233.0 268.2,233.7 C268.5,234.4 268.8,234.8 269.1,235.6 C270.9,244.8 275.2,252.8 278.1,261.6 C278.5,262.4 278.8,262.9 279.2,263.6 C279.5,265.0 279.7,266.1 280.0,267.6 C280.5,268.5 281.0,269.0 281.5,269.8 C281.9,270.8 282.0,271.6 282.3,272.7 C282.9,273.8 283.2,274.6 283.8,275.8 C286.0,282.1 288.0,288.2 290.2,294.6 C290.6,295.5 290.9,295.9 291.0,296.8 C291.2,304.3 296.7,309.5 298.6,316.1 C299.0,317.5 299.9,318.8 300.5,320.1 C303.5,327.0 303.2,328.4 297.3,333.9 C294.1,335.8 292.3,333.7 290.6,331.9 C287.4,328.7 285.5,324.5 283.9,320.4 C277.7,304.6 271.6,288.9 266.5,272.3 z"/><path fill="#3aa38b" opacity="1.0" stroke="none" d="M354.8,200.7 C359.6,206.9 359.8,213.0 357.7,220.2 C355.4,228.3 353.1,236.3 350.0,244.1 C349.6,245.1 349.6,246.5 348.0,246.4 C346.9,246.4 346.4,245.2 346.2,244.3 C343.9,234.4 338.8,225.3 337.5,215.0 C336.3,204.5 338.8,200.6 349.7,198.9 C351.7,199.0 353.2,199.4 354.8,200.7 z"/><path fill="#e9a13b" opacity="1.0" stroke="none" d="M266.2,272.4 C271.3,276.6 272.1,283.3 274.5,289.2 C279.3,301.3 282.9,313.9 288.8,325.7 C290.5,329.1 292.7,332.2 296.7,334.0 C296.0,339.0 291.4,341.2 288.4,344.9 C284.4,345.5 283.4,342.4 282.1,340.0 C276.4,329.4 273.7,317.7 270.0,306.3 C268.3,300.9 267.4,295.3 266.4,289.4 C266.1,286.0 266.0,282.9 265.9,279.4 C265.9,276.9 266.0,274.9 266.2,272.4 z"/><path fill="#ee6c4d" opacity="1.0" stroke="none" d="M266.2,289.5 C270.4,297.2 272.2,306.2 275.0,314.9 C278.2,325.2 281.1,335.7 287.8,344.8 C286.1,347.5 284.1,350.4 280.4,349.4 C276.9,348.5 275.3,345.4 274.4,342.1 C271.3,330.2 268.3,318.3 265.3,306.0 C266.7,300.4 265.5,295.1 266.2,289.5 z"/><path fill="#ee6c4d" opacity="1.0" stroke="none" d="M430.9,282.1 C431.4,284.7 431.6,287.6 432.0,290.9 C430.0,300.6 428.0,310.0 425.7,319.3 C424.1,325.5 423.7,332.0 421.5,338.1 C420.3,341.6 418.7,342.9 415.2,340.4 C413.9,335.9 417.5,333.2 418.3,329.5 C421.6,313.6 425.3,297.8 430.9,282.1 z"/><path fill="#2f2440" opacity="1.0" stroke="none" d="M354.9,200.6 C353.5,200.4 352.0,199.9 350.3,199.1 C352.3,197.5 353.7,198.5 354.9,200.6 z"/><path fill="#c14e33" opacity="1.0" stroke="none" d="M432.3,465.3 C433.0,464.0 434.0,463.9 435.0,465.5 C434.3,465.6 433.4,465.6 432.3,465.3 z"/><path fill="#2f2440" opacity="1.0" stroke="none" d="M364.9,129.5 C364.1,129.7 363.3,129.6 362.2,129.3 C362.9,128.1 363.9,127.8 364.9,129.5 z"/><path fill="#2f2440" opacity="1.0" stroke="none" d="M284.0,275.7 C283.1,275.5 282.3,274.8 282.3,273.3 C283.5,273.4 283.9,274.3 284.0,275.7 z"/><path fill="#2f2440" opacity="1.0" stroke="none" d="M291.1,296.8 C290.7,296.5 290.5,296.1 290.2,295.3 C291.1,295.3 291.9,295.5 291.1,296.8 z"/><path fill="#c14e33" opacity="1.0" stroke="none" d="M445.1,465.8 C445.2,464.9 445.6,464.1 446.8,465.0 C446.5,465.4 445.9,465.6 445.1,465.8 z"/><path fill="#2f2440" opacity="1.0" stroke="none" d="M542.5,261.9 C542.3,261.4 542.4,260.9 542.7,260.2 C543.7,260.7 543.8,261.4 542.5,261.9 z"/><path fill="#2f2440" opacity="1.0" stroke="none" d="M526.4,342.9 C526.3,342.4 526.4,341.9 526.8,341.2 C527.7,341.8 527.7,342.4 526.4,342.9 z"/><path fill="#2b7f6c" opacity="1.0" stroke="none" d="M281.7,269.8 C281.2,269.6 280.7,269.0 280.1,268.2 C280.9,268.2 281.5,268.6 281.7,269.8 z"/><path fill="#2f2440" opacity="1.0" stroke="none" d="M520.4,372.9 C520.3,372.4 520.4,371.9 520.8,371.2 C521.8,371.8 521.7,372.4 520.4,372.9 z"/><path fill="#c14e33" opacity="1.0" stroke="none" d="M546.6,242.0 C546.2,241.3 546.5,240.6 547.5,239.9 C547.8,240.7 547.6,241.4 546.6,242.0 z"/><path fill="#2f2440" opacity="1.0" stroke="none" d="M516.4,392.9 C516.3,392.4 516.5,391.9 516.8,391.2 C517.8,391.8 517.7,392.5 516.4,392.9 z"/><path fill="#2f2440" opacity="1.0" stroke="none" d="M269.3,235.7 C268.9,235.5 268.6,235.0 268.3,234.3 C269.0,234.2 269.8,234.4 269.3,235.7 z"/><path fill="#8a7590" opacity="1.0" stroke="none" d="M364.9,123.8 C365.7,123.2 366.4,123.4 367.1,124.5 C366.3,125.1 365.5,125.1 364.9,123.8 z"/><path fill="#2f2440" opacity="1.0" stroke="none" d="M279.4,263.6 C278.9,263.4 278.5,263.0 278.2,262.3 C278.9,262.2 279.7,262.4 279.4,263.6 z"/><path fill="#2f2440" opacity="1.0" stroke="none" d="M410.9,465.5 C410.1,465.8 409.5,465.4 408.9,464.4 C409.6,464.1 410.4,464.4 410.9,465.5 z"/><path fill="#2f2440" opacity="1.0" stroke="none" d="M579.8,218.8 C579.5,219.3 579.0,219.5 578.3,219.8 C578.2,219.0 578.4,218.2 579.8,218.8 z"/><path fill="#2f2440" opacity="1.0" stroke="none" d="M515.3,396.8 C515.2,396.6 515.3,396.3 515.8,396.0 C515.9,396.2 515.7,396.4 515.3,396.8 z"/><path fill="#2f2440" opacity="1.0" stroke="none" d="M280.1,155.3 C280.1,155.1 280.5,155.0 280.8,155.1 C280.9,155.3 280.7,155.5 280.3,155.9 C280.2,156.0 280.0,155.6 280.1,155.3 z"/><path fill="#2f2440" opacity="1.0" stroke="none" d="M266.8,227.0 C266.6,227.0 266.4,226.8 266.1,226.3 C266.4,226.2 266.6,226.5 266.8,227.0 z"/><path fill="#2f2440" opacity="1.0" stroke="none" d="M387.8,451.7 C387.6,451.8 387.4,451.7 387.1,451.2 C387.3,451.2 387.5,451.3 387.8,451.7 z"/><path fill="#2f2440" opacity="1.0" stroke="none" d="M264.2,220.1 C264.0,220.0 264.1,219.5 264.2,219.2 C264.5,219.3 264.7,219.5 264.8,220.1 C264.9,220.3 264.4,220.2 264.2,220.1 z"/><path fill="#2f2440" opacity="1.0" stroke="none" d="M596.2,207.9 C596.1,207.7 596.3,207.4 596.7,207.2 C596.8,207.4 596.6,207.6 596.2,207.9 z"/><path fill="#2f2440" opacity="1.0" stroke="none" d="M611.3,195.8 C611.2,195.7 611.3,195.4 611.8,195.2 C611.8,195.4 611.6,195.6 611.3,195.8 z"/><path fill="#e9a13b" opacity="1.0" stroke="none" d="M638.4,250.1 C638.8,257.4 638.9,264.8 638.9,272.6 C634.8,280.8 630.6,288.5 624.9,295.4 C614.0,308.5 600.1,316.0 583.4,319.1 C578.0,320.1 572.7,321.4 567.2,321.0 C564.4,320.9 563.4,322.7 563.1,325.1 C561.6,339.3 557.9,353.0 555.6,367.1 C553.3,381.2 550.8,395.2 548.0,409.2 C543.9,430.1 540.1,451.1 535.8,472.0 C532.9,486.1 531.2,500.4 526.2,514.0 C515.7,542.7 497.5,563.9 467.4,572.2 C456.8,575.2 445.6,575.9 434.0,573.7 C419.5,570.9 407.0,565.1 395.5,556.1 C384.8,547.7 377.4,536.8 371.4,524.8 C365.1,512.0 360.3,498.6 354.9,485.4 C354.3,484.0 353.7,482.5 351.9,482.6 C350.2,482.6 350.2,484.3 349.9,485.6 C346.4,499.3 341.9,512.7 335.6,525.4 C325.6,545.9 310.7,561.2 289.2,569.9 C281.6,573.0 273.9,575.3 265.7,575.0 C257.3,574.7 248.9,575.8 240.5,573.3 C228.3,569.8 217.2,564.9 207.7,556.3 C192.0,542.3 182.7,525.0 176.9,504.9 C172.0,488.0 168.4,470.8 163.5,453.9 C159.8,441.4 157.6,428.4 154.9,415.6 C153.4,408.5 152.9,407.9 145.8,408.0 C128.6,408.0 112.1,404.7 96.9,396.6 C84.6,390.1 75.6,379.8 68.0,368.3 C63.8,361.8 62.1,354.3 58.5,347.3 C57.4,343.0 56.4,338.8 58.1,334.3 C61.7,333.7 62.5,336.5 63.6,338.8 C72.6,357.4 85.4,371.8 105.4,379.3 C117.6,383.9 130.0,385.8 142.9,385.9 C151.0,385.9 153.8,388.1 155.8,396.2 C157.6,403.6 158.8,411.2 160.8,418.6 C165.7,437.4 169.9,456.4 175.1,475.1 C178.9,488.8 182.5,502.9 190.3,515.0 C198.1,527.0 208.0,536.8 220.9,543.7 C235.6,551.6 251.0,553.7 267.2,552.8 C280.4,552.1 292.1,546.9 303.1,540.1 C318.4,530.8 328.6,517.2 335.1,500.5 C339.2,490.0 342.6,479.2 346.1,468.5 C346.9,465.8 347.2,461.8 351.0,461.9 C354.7,461.9 355.9,465.6 356.9,468.5 C361.0,480.5 365.6,492.3 371.1,503.7 C381.1,524.3 396.1,539.8 417.6,548.0 C429.8,552.7 442.7,554.9 455.8,551.4 C459.3,550.5 463.1,551.3 466.7,550.2 C485.5,544.5 500.8,534.1 511.7,517.5 C519.3,505.9 524.6,493.0 527.1,479.8 C530.7,461.0 535.0,442.2 538.2,423.2 C541.3,405.6 544.8,388.0 548.2,370.4 C551.0,356.6 553.9,342.8 556.4,328.9 C557.7,321.8 559.5,314.6 561.2,307.5 C562.4,302.5 565.5,300.2 571.6,300.0 C591.2,299.6 607.2,291.3 620.7,277.6 C627.1,271.1 630.8,262.8 634.5,254.7 C635.4,252.9 635.9,250.9 638.4,250.1 z"/><path fill="#ee6c4d" opacity="1.0" stroke="none" d="M638.9,249.6 C633.7,262.8 628.1,275.3 617.1,284.2 C604.7,294.4 590.9,301.7 574.2,302.0 C565.1,302.2 564.7,302.5 562.7,311.4 C557.2,335.8 552.8,360.4 547.8,384.9 C543.1,407.5 539.8,430.2 534.6,452.6 C532.6,461.4 530.7,470.3 529.7,479.4 C528.7,488.0 524.4,496.1 521.1,504.2 C512.4,524.8 498.4,540.2 477.1,548.5 C457.2,556.4 436.9,557.7 416.9,550.2 C394.8,541.8 379.2,525.8 369.0,504.5 C363.7,493.4 359.1,482.1 355.3,470.4 C354.3,467.6 353.6,464.7 350.6,462.6 C347.3,469.9 345.7,477.4 343.4,484.6 C338.2,500.3 332.4,515.6 321.1,528.2 C313.6,536.6 304.4,542.6 294.1,547.5 C273.3,557.6 251.8,557.7 230.5,550.6 C212.4,544.5 198.1,532.4 188.2,515.8 C178.1,499.0 174.2,480.0 169.2,461.5 C165.1,446.3 161.5,431.0 157.8,415.7 C156.1,408.7 154.6,401.7 153.0,394.8 C152.0,389.8 149.3,387.7 143.9,387.9 C128.5,388.5 113.6,385.8 99.5,379.2 C86.9,373.4 77.4,364.5 69.4,353.2 C65.1,347.2 62.4,340.6 58.5,334.1 C56.5,322.6 57.1,311.3 57.1,299.5 C60.3,299.3 60.5,302.0 61.1,304.1 C62.3,308.1 63.3,312.1 64.7,316.0 C68.6,326.7 76.3,334.4 84.8,341.6 C91.4,347.2 98.7,351.9 106.7,355.2 C113.7,358.2 121.3,359.5 128.9,359.8 C133.6,360.0 138.3,359.8 142.9,359.9 C149.0,360.1 151.2,361.7 153.2,367.4 C155.8,374.3 156.9,381.5 158.6,388.6 C162.2,404.0 166.4,419.3 170.3,434.7 C173.9,449.2 178.7,463.3 183.2,477.6 C185.2,484.1 188.9,489.7 192.9,494.9 C203.5,508.9 217.1,518.8 234.2,523.9 C247.3,527.8 260.5,529.5 273.6,526.5 C287.5,523.2 300.5,517.5 311.7,507.8 C323.0,498.2 330.1,486.2 334.8,472.4 C338.1,462.3 341.9,452.4 344.6,442.0 C344.9,440.9 345.2,439.8 345.7,438.7 C346.5,436.9 347.3,434.8 349.7,434.7 C352.1,434.7 353.6,436.7 354.4,438.7 C355.9,442.4 357.2,446.1 358.5,449.9 C362.5,461.0 366.3,472.1 371.7,482.7 C377.7,494.3 385.8,503.7 396.2,511.7 C410.8,523.1 427.4,527.9 445.4,527.8 C462.3,527.6 477.3,522.1 491.1,511.9 C507.2,500.0 516.7,484.2 522.8,466.0 C525.1,459.3 526.1,452.1 527.4,445.1 C529.3,435.3 532.1,425.7 533.6,415.9 C535.3,404.6 538.1,393.5 539.9,382.2 C541.7,371.8 544.3,361.5 546.2,351.1 C548.6,338.2 550.1,325.1 552.5,312.3 C554.2,303.2 556.4,294.2 557.5,284.9 C558.4,276.0 561.7,273.9 570.9,273.9 C580.4,273.9 589.0,270.9 597.6,267.0 C609.2,261.9 617.4,253.2 625.3,244.0 C627.1,241.8 627.6,238.9 628.9,236.4 C633.0,228.4 635.3,219.7 638.2,211.2 C638.7,223.8 638.8,236.5 638.9,249.6 z"/><path fill="#e9a13b" opacity="1.0" stroke="none" d="M638.6,211.2 C639.0,223.0 633.2,233.1 628.3,243.0 C625.3,248.8 620.2,254.2 614.9,258.8 C606.8,265.7 597.2,269.9 587.5,273.8 C581.8,276.0 575.5,276.0 569.3,276.0 C562.5,276.0 559.0,279.7 558.6,286.6 C558.2,294.2 556.0,301.5 554.7,308.9 C553.2,317.6 552.3,326.3 551.0,335.0 C549.8,343.1 548.2,351.0 546.8,359.0 C544.6,371.1 541.1,382.8 539.8,395.1 C539.0,402.5 536.5,409.8 535.4,417.3 C533.9,427.6 530.7,437.6 529.2,447.9 C526.0,470.2 517.6,490.5 501.6,506.2 C492.4,515.4 481.2,522.7 467.9,526.4 C453.6,530.4 439.7,531.1 425.6,527.9 C403.8,522.9 386.9,510.8 374.6,491.8 C365.3,477.5 360.5,461.6 355.0,445.8 C353.8,442.3 352.7,438.5 349.5,435.5 C346.5,441.1 345.7,447.1 343.8,452.7 C340.0,464.2 336.8,476.0 331.2,486.7 C320.8,507.0 303.9,519.3 282.3,526.2 C269.9,530.3 257.4,531.3 245.0,528.8 C227.7,525.2 211.4,519.1 199.0,505.1 C193.3,498.7 188.1,492.1 184.0,484.8 C180.2,478.0 178.7,470.4 176.3,463.2 C171.3,448.1 167.7,432.6 163.5,417.3 C159.7,403.1 156.6,388.7 153.1,374.4 C152.4,371.6 151.7,368.9 150.8,366.2 C149.7,362.9 147.0,362.0 143.7,362.0 C135.6,361.9 127.4,362.5 119.3,361.0 C108.0,358.9 97.9,354.2 88.6,347.3 C81.9,342.3 75.7,336.8 70.2,330.7 C64.9,324.7 62.4,316.9 60.1,309.3 C59.1,306.1 58.4,302.8 57.4,299.3 C57.1,295.0 57.1,291.0 57.1,286.5 C60.6,292.8 63.0,300.0 66.9,306.7 C75.8,322.1 87.2,334.5 103.4,342.1 C108.4,344.5 113.8,344.7 119.0,344.9 C127.7,345.2 136.4,345.1 145.0,345.0 C148.7,344.9 150.1,346.0 151.4,349.9 C154.7,360.3 156.2,371.0 159.0,381.4 C163.8,399.5 167.9,417.8 172.9,435.9 C175.5,445.4 178.5,455.1 182.8,464.0 C191.8,482.3 205.4,496.1 224.7,504.1 C236.0,508.8 247.7,511.2 259.6,510.8 C280.8,510.1 299.1,502.6 314.9,487.2 C331.6,470.9 340.0,451.1 345.3,429.1 C345.9,426.5 346.1,422.0 348.3,421.8 C351.0,421.7 352.0,426.1 352.9,428.7 C357.9,443.7 363.1,458.6 371.8,471.9 C380.4,484.9 391.5,495.1 405.7,502.0 C415.8,506.9 426.4,509.8 437.6,510.7 C449.5,511.7 460.9,509.7 471.8,505.4 C498.4,494.9 513.5,474.3 522.4,448.0 C526.9,434.6 530.0,421.0 532.2,407.1 C534.1,395.6 537.2,384.4 539.2,373.0 C541.6,359.6 544.3,346.3 546.4,332.9 C547.9,323.7 550.7,314.5 552.4,305.2 C554.4,294.8 557.3,284.6 558.2,274.0 C558.5,270.6 560.0,267.4 560.4,263.8 C560.8,260.5 563.4,259.8 566.4,260.0 C576.0,260.6 585.2,258.3 594.0,254.9 C611.9,248.0 624.5,235.3 632.8,218.1 C634.0,215.5 635.3,213.0 636.7,210.2 C637.4,210.2 637.7,210.5 638.2,211.1 C638.6,211.2 638.6,211.2 638.6,211.2 z"/><path fill="#ee6c4d" opacity="1.0" stroke="none" d="M638.6,210.7 C638.2,210.9 637.8,210.7 637.2,210.2 C637.4,206.2 636.5,202.3 638.0,198.3 C638.4,202.1 638.5,206.1 638.6,210.7 z"/><path fill="#f8e3c9" opacity="1.0" stroke="none" d="M273.8,433.9 C248.1,443.8 219.7,428.0 211.7,402.1 C206.9,386.7 203.8,370.9 199.7,355.4 C196.1,341.8 193.2,328.0 189.5,314.4 C184.6,296.8 181.4,278.7 176.2,261.2 C171.7,246.1 169.3,230.5 162.9,215.9 C157.9,204.8 150.0,198.9 137.5,199.8 C136.3,199.9 134.9,200.5 133.8,199.3 C139.3,193.8 153.0,192.2 159.3,195.9 C168.8,201.5 174.2,210.1 176.9,220.3 C181.8,238.6 187.0,256.7 191.3,275.2 C196.5,297.5 202.7,319.5 207.7,341.9 C210.5,354.8 213.0,367.9 216.8,380.6 C219.5,389.5 222.1,398.4 226.4,406.7 C237.0,427.3 264.5,431.5 281.3,415.7 C286.5,410.7 290.3,404.5 296.1,400.3 C297.7,399.2 298.5,396.3 300.8,397.8 C303.2,399.2 301.9,401.6 301.3,403.7 C296.8,417.8 287.6,427.7 273.8,433.9 z"/><path fill="#f8e3c9" opacity="1.0" stroke="none" d="M371.7,302.9 C368.0,305.3 366.6,303.4 366.2,300.2 C365.4,294.1 366.1,288.2 368.0,282.5 C373.3,266.4 378.5,250.4 382.4,234.0 C385.2,222.3 386.0,210.3 384.8,198.3 C383.4,185.6 368.2,171.4 355.3,170.1 C340.4,168.5 327.7,172.4 318.2,184.6 C313.8,190.4 311.4,196.7 310.9,203.9 C310.0,217.3 312.3,230.4 315.5,243.3 C316.9,248.8 318.4,254.3 318.0,260.0 C317.9,262.0 317.9,264.5 315.4,264.8 C313.3,265.1 312.4,262.9 311.8,261.2 C305.8,245.0 299.3,228.8 298.2,211.3 C296.9,190.8 309.5,167.8 332.3,160.6 C360.3,151.8 388.1,166.0 396.3,195.6 C399.9,208.4 397.9,221.0 394.7,233.5 C389.2,255.1 382.0,276.2 374.8,297.3 C374.1,299.2 372.9,300.8 371.7,302.9 z"/><path fill="#f8e3c9" opacity="1.0" stroke="none" d="M522.2,189.2 C527.0,176.4 532.1,164.2 540.2,153.4 C543.4,149.0 547.4,145.7 551.7,142.5 C552.7,141.8 553.6,141.0 554.9,141.8 C556.0,142.5 556.1,143.8 556.0,144.9 C555.6,148.7 554.1,152.3 551.8,154.9 C545.5,161.7 543.5,170.6 539.4,178.4 C531.4,193.5 528.7,210.5 522.7,226.2 C521.4,229.6 520.9,233.4 520.6,236.9 C519.1,250.7 513.4,263.4 511.5,277.1 C509.9,288.1 507.4,299.1 505.1,310.1 C503.4,318.7 500.8,327.4 498.9,336.1 C495.6,352.1 492.9,368.3 488.6,384.1 C484.0,401.0 475.4,415.5 457.9,422.6 C456.8,423.0 455.8,423.8 454.7,423.8 C445.4,424.0 436.0,425.0 426.8,423.4 C413.8,421.0 405.9,411.8 399.1,401.5 C397.1,398.4 395.3,395.3 393.6,392.0 C392.5,389.8 392.5,387.1 394.7,385.6 C397.0,384.0 398.2,386.7 399.4,388.0 C405.1,393.8 410.6,399.9 416.3,405.7 C424.6,414.0 442.3,416.8 453.3,412.0 C465.9,406.4 473.3,396.7 476.7,383.5 C483.3,357.5 488.4,331.3 494.0,305.2 C497.0,291.1 499.3,276.9 502.4,262.8 C504.5,253.1 507.9,243.8 509.7,234.1 C511.7,223.5 514.7,213.1 517.8,202.8 C519.2,198.4 520.7,194.0 522.2,189.2 z"/><path fill="#2f2440" opacity="1.0" stroke="none" d="M582.7,173.0 C581.8,174.9 580.7,177.0 577.7,176.5 C578.8,174.6 580.0,172.9 582.7,173.0 z"/><path fill="#2f2440" opacity="1.0" stroke="none" d="M578.2,178.2 C578.4,178.2 578.5,178.4 578.5,178.6 C578.4,178.5 578.2,178.5 578.2,178.2 z"/></svg> 